<svg id="Layer_1" data-name="Layer 1" xmlns="http://www.w3.org/2000/svg" viewBox="0 0 512 512"><defs><style>.cls-1{fill:none;stroke:#000;stroke-linecap:round;stroke-miterlimit:10;stroke-width:25px;}</style></defs><path d="M256,90.21a165.79,165.79,0,1,1-117.23,48.56A164.72,164.72,0,0,1,256,90.21m0-20C153.39,70.21,70.21,153.39,70.21,256S153.39,441.79,256,441.79,441.79,358.61,441.79,256,358.61,70.21,256,70.21Z"/><path d="M256,139a117,117,0,1,1-82.73,34.27A116.23,116.23,0,0,1,256,139m0-9A126,126,0,1,0,382,256,126,126,0,0,0,256,130Z"/><path d="M256,175.9A80.1,80.1,0,1,1,175.9,256,80.2,80.2,0,0,1,256,175.9m0-9A89.1,89.1,0,1,0,345.1,256,89.1,89.1,0,0,0,256,166.9Z"/><path d="M256,217.29A38.71,38.71,0,1,1,217.29,256,38.75,38.75,0,0,1,256,217.29m0-9A47.71,47.71,0,1,0,303.71,256,47.71,47.71,0,0,0,256,208.29Z"/><path d="M101.79,381.39,42.41,351.06c-4-2-9.66,1.72-9.36,6.21L37.46,425c.25,3.88,4.92,5.41,8.7,2.84l55-37.4C104.83,387.92,105.19,383.12,101.79,381.39Z"/><path class="cls-1" d="M60.92,396.24l37.64,37.64A237.41,237.41,0,0,0,413,78.12,235.87,235.87,0,0,0,241.2,19M148.36,44.15"/></svg>