<svg id="Layer_1" data-name="Layer 1" xmlns="http://www.w3.org/2000/svg" viewBox="0 0 512 512"><defs><style>.cls-1{fill:none;stroke-width:20px;}.cls-1,.cls-2{stroke:#000;stroke-miterlimit:10;}</style></defs><path class="cls-1" d="M67.35,328.23H171.12a12.65,12.65,0,0,1,12.65,12.65V444.65a27.94,27.94,0,0,0,27.93,27.93h88.6a27.94,27.94,0,0,0,27.93-27.93V340.88a12.65,12.65,0,0,1,12.65-12.65H444.65a27.94,27.94,0,0,0,27.93-27.93V211.7a27.94,27.94,0,0,0-27.93-27.93H340.88a12.65,12.65,0,0,1-12.65-12.65V67.35A27.94,27.94,0,0,0,300.3,39.42H211.7a27.94,27.94,0,0,0-27.93,27.93V171.12a12.65,12.65,0,0,1-12.65,12.65H67.35A27.94,27.94,0,0,0,39.42,211.7v88.6A27.94,27.94,0,0,0,67.35,328.23Z"/><path class="cls-2" d="M417.48,254.93,378.2,237.58a2.13,2.13,0,0,0-3.24,1.81V274.1a2.13,2.13,0,0,0,3.24,1.81l39.28-17.35A2.13,2.13,0,0,0,417.48,254.93Z"/><path d="M171.12,184.52H67.35a27.93,27.93,0,0,0-27.93,27.93V301A27.93,27.93,0,0,0,67.35,329H171.12c7,0,22.6,5.67,22.6,12.66V171.86C193.72,178.85,178.11,184.52,171.12,184.52ZM137,256.75V274.1a2.13,2.13,0,0,1-3.24,1.81L94.52,258.56a2.13,2.13,0,0,1,0-3.63l39.28-17.35a2.13,2.13,0,0,1,3.24,1.81Z"/><path class="cls-2" d="M254.19,92.77l-17.35,39.28a2.13,2.13,0,0,0,1.81,3.24h34.7a2.13,2.13,0,0,0,1.82-3.24L257.81,92.77A2.12,2.12,0,0,0,254.19,92.77Z"/><path class="cls-2" d="M257.81,419.23,275.17,380a2.13,2.13,0,0,0-1.82-3.24h-34.7a2.13,2.13,0,0,0-1.81,3.24l17.35,39.28A2.12,2.12,0,0,0,257.81,419.23Z"/></svg>