<svg id="Layer_1" data-name="Layer 1" xmlns="http://www.w3.org/2000/svg" viewBox="0 0 512 512"><defs><style>.cls-1{fill:none;stroke:#000;stroke-miterlimit:10;stroke-width:24px;}.cls-2{fill:#231f20;}</style></defs><path class="cls-1" d="M256.1,127C89.81,127-7.38,385,90,385H422.19c95.89,0,2.94-258-166.09-258Z"/><path d="M283,347.34l-37.87-79.49v79.49h-24V178.21h33.32c15.08,0,26.57,3.53,34.14,10.51S300,207.42,300,223.54c0,12.17-2.7,21.92-8,29-5.22,6.9-13,11-23.09,12.15l39.67,82.66Zm-30-96c7.62,0,13.41-2,17.2-5.83s5.71-11.42,5.71-22.45c0-8.33-1.67-14.48-5-18.27s-8.89-5.67-16.68-5.67h-9.11v52.22Z"/><path class="cls-2" d="M254.45,178.81q22.49,0,33.74,10.35t11.24,34.38q0,18.15-7.92,28.63t-23.52,12l39.62,82.56H283.33L244.48,265.2v81.54H221.73V178.81h32.72m-10,73.1h8.44q11.75,0,17.63-6T276.43,223q0-12.78-5.11-18.66t-17.13-5.88h-9.71v53.42m10-74.3H220.53V347.94h25.15V270.51l36.57,76.74.32.69h26.95l-.82-1.72-38.89-81c9.86-1.32,17.48-5.45,22.66-12.29,5.42-7.17,8.16-17,8.16-29.35,0-16.29-3.91-28.16-11.63-35.26s-19.32-10.67-34.55-10.67Zm-8.77,22.08h8.51c7.61,0,13.06,1.84,16.22,5.46s4.82,9.7,4.82,17.88c0,10.86-1.86,18.28-5.54,22s-9.31,5.65-16.77,5.65h-7.24v-51Z"/></svg>