<svg id="Layer_1" data-name="Layer 1" xmlns="http://www.w3.org/2000/svg" viewBox="0 0 512 512"><path d="M147.89,425.31l-7.43,9.94L255,503.78l115.51-68.53-8.36-9.94C333,446.59,295.7,459.37,255,459.37S177.06,446.59,147.89,425.31Z"/><path d="M374.21,137.79a167.18,167.18,0,1,0,49,118.21A166.11,166.11,0,0,0,374.21,137.79ZM256,355a99,99,0,1,1,99-99A99.11,99.11,0,0,1,256,355Z"/><path d="M256,169a87,87,0,1,0,87,87A87.1,87.1,0,0,0,256,169Zm12.65,63.82-4.5-2.61a18.55,18.55,0,0,0-9.25-2c-3.55,0-5.65,1.62-6.78,5.25C246.68,238,246,244.74,246,253.39c0,9.36,1.05,25.07,8.08,25.07,4.12,0,7.43-.82,9.83-2.44l4.68-3.16v16.72l-1.53.86a26.37,26.37,0,0,1-13,2.91c-8,0-14.07-4-18.08-11.78-3.68-7.16-5.54-16.6-5.54-28.07a102.29,102.29,0,0,1,1.65-19.61A28.61,28.61,0,0,1,239,219.47c3.65-3.86,8.7-5.82,15-5.82,6,0,10.31.82,13.15,2.5l1.47.87Z"/></svg>