<svg id="Layer_1" data-name="Layer 1" xmlns="http://www.w3.org/2000/svg" viewBox="0 0 512 512"><path d="M256,180.06A75.94,75.94,0,1,0,331.94,256,76,76,0,0,0,256,180.06Zm0,124.49A48.55,48.55,0,1,1,304.55,256,48.55,48.55,0,0,1,256,304.55Z"/><circle cx="256" cy="256" r="33.83" transform="translate(-37.7 44.31) rotate(-9.22)"/><path d="M336.25,175.75A113.49,113.49,0,1,0,369.49,256,112.79,112.79,0,0,0,336.25,175.75ZM256,346.66A90.66,90.66,0,1,1,346.66,256,90.66,90.66,0,0,1,256,346.66Z"/><path d="M374.21,137.79a167.18,167.18,0,1,0,49,118.21A166.11,166.11,0,0,0,374.21,137.79ZM256,384.21A128.21,128.21,0,1,1,384.21,256,128.21,128.21,0,0,1,256,384.21Z"/></svg>