<svg id="Layer_1" data-name="Layer 1" xmlns="http://www.w3.org/2000/svg" viewBox="0 0 512 512"><defs><style>.cls-1{stroke:#000;stroke-miterlimit:10;}</style></defs><path class="cls-1" d="M92.77,257.81l39.28,17.36a2.13,2.13,0,0,0,3.24-1.82v-34.7a2.13,2.13,0,0,0-3.24-1.81L92.77,254.19A2.12,2.12,0,0,0,92.77,257.81Z"/><path d="M419.23,254.19,380,236.84a2.13,2.13,0,0,0-3.24,1.81v34.7a2.13,2.13,0,0,0,3.24,1.82l39.28-17.36A2.12,2.12,0,0,0,419.23,254.19Z"/><path d="M444.65,173.77H340.88a2.65,2.65,0,0,1-2.65-2.65V67.35A38,38,0,0,0,300.3,29.42H211.7a38,38,0,0,0-37.93,37.93V171.12a2.65,2.65,0,0,1-2.65,2.65H67.35A38,38,0,0,0,29.42,211.7v88.6a38,38,0,0,0,37.93,37.93H171.12a2.65,2.65,0,0,1,2.65,2.65V444.65a38,38,0,0,0,37.93,37.93h88.6a38,38,0,0,0,37.93-37.93V340.88a2.65,2.65,0,0,1,2.65-2.65H444.65a38,38,0,0,0,37.93-37.93V211.7A38,38,0,0,0,444.65,173.77ZM174.17,318.44a22,22,0,0,0-3-.21H67.35A18,18,0,0,1,49.42,300.3V211.7a18,18,0,0,1,17.93-17.93H171.12a22,22,0,0,0,3-.21ZM274.42,378.2l-17.35,39.28a2.13,2.13,0,0,1-3.63,0L236.09,378.2A2.13,2.13,0,0,1,237.9,375h34.71A2.13,2.13,0,0,1,274.42,378.2Zm-1.07-242.91h-34.7a2.13,2.13,0,0,1-1.82-3.24l17.36-39.28a2.12,2.12,0,0,1,3.62,0l17.35,39.28A2.13,2.13,0,0,1,273.35,135.29Zm187.5,165a18,18,0,0,1-17.93,17.93H339.15a22,22,0,0,0-3,.21V193.56a22,22,0,0,0,3,.21H442.92a18,18,0,0,1,17.93,17.93Z"/></svg>