<svg id="Layer_1" data-name="Layer 1" xmlns="http://www.w3.org/2000/svg" viewBox="0 0 512 512"><defs><style>.cls-1,.cls-2{stroke:#000;stroke-miterlimit:10;}.cls-2{fill:none;stroke-linecap:round;stroke-width:12px;}</style></defs><path class="cls-1" d="M257.57,88l15.07-51.95c.76-1.88-.13-4.28-1.57-4.28H240.93c-1.44,0-2.33,2.4-1.57,4.28l15.07,52C255.15,89.82,256.85,89.82,257.57,88Z"/><path class="cls-1" d="M92.07,159.74,66,112.34c-.79-1.85-3.12-2.93-4.14-1.91L51.19,121.09,40.54,131.74c-1,1,.05,3.35,1.91,4.14L89.85,162C91.62,162.72,92.83,161.51,92.07,159.74Z"/><path class="cls-1" d="M419.93,159.74,446,112.34c.79-1.85,3.12-2.93,4.14-1.91l10.66,10.66,10.65,10.65c1,1,0,3.35-1.91,4.14L422.15,162C420.38,162.72,419.17,161.51,419.93,159.74Z"/><path d="M256.1,127C89.81,127-7.38,385,90,385H422.19C518.08,385,425.13,127,256.1,127Zm44.17,219.76H229.21V178.81H252v147h48.31Z"/><path class="cls-2" d="M354,401h58.61c39.29,0,64.67-24.84,64.67-63.28,0-18.35-2.57-39.52-13.11-61.22q-2.43-5-5.17-9.93"/><path class="cls-2" d="M53.44,267A146.55,146.55,0,0,0,34.7,338.27C34.7,376.38,60.15,401,99.55,401H158"/></svg>