<svg id="Layer_1" data-name="Layer 1" xmlns="http://www.w3.org/2000/svg" viewBox="0 0 512 512"><path d="M475.07,267.87C477.51,180.21,366.67,140.1,256,142,145.32,140.1,34.48,180.21,36.93,267.88c-1.55,58.39,52.35,109.19,112,101.45,3.09-.28,6.19-.68,9.29-1.25a351.56,351.56,0,0,1,95.21-13.87c.86,0,1.71,0,2.56,0s1.7,0,2.56,0a351.56,351.56,0,0,1,95.21,13.87c3.1.57,6.2,1,9.29,1.25C422.73,377.07,476.62,326.26,475.07,267.87Zm-210-4v57.41H246.33V263.88L221,186.1h18.72l15.85,55.35,16.46-55.35H291Z"/></svg>