<svg id="Layer_1" data-name="Layer 1" xmlns="http://www.w3.org/2000/svg" viewBox="0 0 512 512"><defs><style>.cls-1{fill:#fff;}.cls-2{fill:none;stroke:#fff;stroke-linecap:round;stroke-miterlimit:10;stroke-width:35px;}</style></defs><path class="cls-1" d="M256,180.06A75.94,75.94,0,1,0,331.94,256,76,76,0,0,0,256,180.06Zm0,124.49A48.55,48.55,0,1,1,304.55,256,48.55,48.55,0,0,1,256,304.55Z"/><circle class="cls-1" cx="256" cy="256" r="33.83" transform="matrix(0.99, -0.16, 0.16, 0.99, -37.7, 44.31)"/><path class="cls-1" d="M336.25,175.75A113.49,113.49,0,1,0,369.49,256,112.79,112.79,0,0,0,336.25,175.75ZM256,346.66A90.66,90.66,0,1,1,346.66,256,90.66,90.66,0,0,1,256,346.66Z"/><path class="cls-1" d="M374.21,137.79a167.18,167.18,0,1,0,49,118.21A166.11,166.11,0,0,0,374.21,137.79ZM256,384.21A128.21,128.21,0,1,1,384.21,256,128.21,128.21,0,0,1,256,384.21Z"/><path class="cls-1" d="M391.23,370.19,453.4,337c4.17-2.23,10,1.6,9.57,6.34l-6,71.42c-.35,4.1-5.22,5.81-9.07,3.19l-56.15-38.21C387.94,377.14,387.67,372.09,391.23,370.19Z"/><path class="cls-2" d="M269.3,40.05A216.35,216.35,0,0,0,93.9,399.29,216.34,216.34,0,0,0,399.29,418.1l34.3-34.3M353.91,62.94"/></svg>