<svg id="Layer_1" data-name="Layer 1" xmlns="http://www.w3.org/2000/svg" viewBox="0 0 512 512"><defs><style>.cls-1{fill:#fff;}.cls-2{fill:none;stroke:#fff;stroke-linecap:round;stroke-miterlimit:10;stroke-width:35px;}</style></defs><path class="cls-1" d="M246.62,331.94A75.94,75.94,0,1,0,170.68,256,76,76,0,0,0,246.62,331.94Zm0-124.49A48.55,48.55,0,1,1,198.07,256,48.55,48.55,0,0,1,246.62,207.45Z"/><circle class="cls-1" cx="246.62" cy="256" r="33.83" transform="translate(-37.82 42.81) rotate(-9.22)"/><path class="cls-1" d="M166.37,336.25A113.49,113.49,0,1,0,133.13,256,112.79,112.79,0,0,0,166.37,336.25Zm80.25-170.91A90.66,90.66,0,1,1,156,256,90.66,90.66,0,0,1,246.62,165.34Z"/><path class="cls-1" d="M128.41,374.21A167.18,167.18,0,1,0,79.45,256,166.11,166.11,0,0,0,128.41,374.21ZM246.62,127.79A128.21,128.21,0,1,1,118.41,256,128.21,128.21,0,0,1,246.62,127.79Z"/><path class="cls-1" d="M111.39,370.19,49.22,337c-4.17-2.23-10,1.6-9.57,6.34l6,71.42c.35,4.1,5.22,5.81,9.07,3.19l56.15-38.21C114.68,377.14,115,372.09,111.39,370.19Z"/><path class="cls-2" d="M69,383.8l34.3,34.3A216.35,216.35,0,1,0,389.91,93.9,214.93,214.93,0,0,0,233.32,40.05M148.7,62.94"/></svg>