<svg id="Layer_1" data-name="Layer 1" xmlns="http://www.w3.org/2000/svg" viewBox="0 0 512 512"><defs><style>.cls-1,.cls-2{fill:#fff;}.cls-1{stroke:#fff;stroke-miterlimit:10;}</style></defs><path class="cls-1" d="M257.81,419.23,275.17,380a2.13,2.13,0,0,0-1.82-3.24h-34.7a2.13,2.13,0,0,0-1.81,3.24l17.35,39.28A2.12,2.12,0,0,0,257.81,419.23Z"/><path class="cls-2" d="M173.77,67.35V171.12a2.65,2.65,0,0,1-2.65,2.65H67.35A38,38,0,0,0,29.42,211.7v88.6a38,38,0,0,0,37.93,37.93H171.12a2.65,2.65,0,0,1,2.65,2.65V444.65a38,38,0,0,0,37.93,37.93h88.6a38,38,0,0,0,37.93-37.93V340.88a2.65,2.65,0,0,1,2.65-2.65H444.65a38,38,0,0,0,37.93-37.93V211.7a38,38,0,0,0-37.93-37.93H340.88a2.65,2.65,0,0,1-2.65-2.65V67.35A38,38,0,0,0,300.3,29.42H211.7A38,38,0,0,0,173.77,67.35ZM256,135.29H238.65a2.13,2.13,0,0,1-1.81-3.24l17.35-39.28a2.12,2.12,0,0,1,3.62,0l17.36,39.28a2.13,2.13,0,0,1-1.82,3.24ZM135.29,238.65v34.7a2.13,2.13,0,0,1-3.24,1.82L92.77,257.81a2.12,2.12,0,0,1,0-3.62l39.28-17.35A2.13,2.13,0,0,1,135.29,238.65Zm242.91-1.07,39.28,17.35a2.13,2.13,0,0,1,0,3.63L378.2,275.91A2.13,2.13,0,0,1,375,274.1V239.39A2.13,2.13,0,0,1,378.2,237.58Zm-60,103.3V444.65a18,18,0,0,1-17.93,17.93H211.7a18,18,0,0,1-17.93-17.93V340.88a22,22,0,0,0-.21-3.05H318.44A22,22,0,0,0,318.23,340.88Z"/></svg>