<svg id="Layer_1" data-name="Layer 1" xmlns="http://www.w3.org/2000/svg" viewBox="0 0 512 512"><defs><style>.cls-1,.cls-2{fill:#fff;}.cls-1{stroke:#fff;stroke-miterlimit:10;}</style></defs><path class="cls-1" d="M419.23,254.19,380,236.83a2.13,2.13,0,0,0-3.24,1.82v34.7a2.13,2.13,0,0,0,3.24,1.81l39.28-17.35A2.12,2.12,0,0,0,419.23,254.19Z"/><path class="cls-2" d="M67.35,338.23H171.12a2.65,2.65,0,0,1,2.65,2.65V444.65a38,38,0,0,0,37.93,37.93h88.6a38,38,0,0,0,37.93-37.93V340.88a2.65,2.65,0,0,1,2.65-2.65H444.65a38,38,0,0,0,37.93-37.93V211.7a38,38,0,0,0-37.93-37.93H340.88a2.65,2.65,0,0,1-2.65-2.65V67.35A38,38,0,0,0,300.3,29.42H211.7a38,38,0,0,0-37.93,37.93V171.12a2.65,2.65,0,0,1-2.65,2.65H67.35A38,38,0,0,0,29.42,211.7v88.6A38,38,0,0,0,67.35,338.23ZM135.29,256v17.35a2.13,2.13,0,0,1-3.24,1.81L92.78,257.81a2.12,2.12,0,0,1,0-3.62l39.27-17.36a2.13,2.13,0,0,1,3.24,1.82ZM238.65,376.71h34.7a2.13,2.13,0,0,1,1.82,3.24l-17.36,39.28a2.12,2.12,0,0,1-3.62,0L236.84,380A2.13,2.13,0,0,1,238.65,376.71ZM237.58,133.8l17.36-39.28a2.12,2.12,0,0,1,3.62,0l17.35,39.28A2.13,2.13,0,0,1,274.1,137H239.39A2.13,2.13,0,0,1,237.58,133.8Zm103.3,60H444.65a18,18,0,0,1,17.93,17.93v88.6a18,18,0,0,1-17.93,17.93H340.88a22,22,0,0,0-3.05.21V193.56A22,22,0,0,0,340.88,193.77Z"/></svg>