<svg id="Layer_1" data-name="Layer 1" xmlns="http://www.w3.org/2000/svg" viewBox="0 0 512 512"><defs><style>.cls-1,.cls-2{fill:#fff;}.cls-1{stroke:#fff;stroke-miterlimit:10;}</style></defs><path class="cls-1" d="M92.77,257.81l39.28,17.36a2.13,2.13,0,0,0,3.24-1.82v-34.7a2.13,2.13,0,0,0-3.24-1.81L92.77,254.19A2.12,2.12,0,0,0,92.77,257.81Z"/><path class="cls-2" d="M444.65,173.77H340.88a2.65,2.65,0,0,1-2.65-2.65V67.35A38,38,0,0,0,300.3,29.42H211.7a38,38,0,0,0-37.93,37.93V171.12a2.65,2.65,0,0,1-2.65,2.65H67.35A38,38,0,0,0,29.42,211.7v88.6a38,38,0,0,0,37.93,37.93H171.12a2.65,2.65,0,0,1,2.65,2.65V444.65a38,38,0,0,0,37.93,37.93h88.6a38,38,0,0,0,37.93-37.93V340.88a2.65,2.65,0,0,1,2.65-2.65H444.65a38,38,0,0,0,37.93-37.93V211.7A38,38,0,0,0,444.65,173.77ZM376.71,256V238.65a2.13,2.13,0,0,1,3.24-1.81l39.28,17.35a2.12,2.12,0,0,1,0,3.62L380,275.17a2.13,2.13,0,0,1-3.24-1.82ZM273.35,135.29h-34.7a2.13,2.13,0,0,1-1.82-3.24l17.36-39.28a2.12,2.12,0,0,1,3.62,0l17.35,39.28A2.13,2.13,0,0,1,273.35,135.29Zm1.07,242.91-17.35,39.28a2.13,2.13,0,0,1-3.63,0L236.09,378.2A2.13,2.13,0,0,1,237.9,375h34.71A2.13,2.13,0,0,1,274.42,378.2Zm-103.3-60H67.35A18,18,0,0,1,49.42,300.3V211.7a18,18,0,0,1,17.93-17.93H171.12a22,22,0,0,0,3-.21V318.44A22,22,0,0,0,171.12,318.23Z"/></svg>