<svg xmlns="http://www.w3.org/2000/svg" viewBox="0 0 4096 2160"><defs><style>.cls-1,.cls-4{fill:none;}.cls-1,.cls-4,.cls-5{stroke:#000;}.cls-1,.cls-3,.cls-4,.cls-5{stroke-miterlimit:10;}.cls-1{stroke-width:7px;}.cls-2{fill:#231f20;}.cls-3{font-size:46.18px;stroke:#231f20;font-family:FuturaCondensedPlain, Futura Condensed;letter-spacing:0.06em;}.cls-4{stroke-width:10px;}</style></defs><g id="Layer_1" data-name="Layer 1"><polyline class="cls-1" points="2702.62 482.5 2873.43 371 3106.65 371"/><polyline class="cls-1" points="1395.11 482.5 1222.57 369.87 989.35 369.87"/><polyline class="cls-1" points="2675.39 983.68 2720.32 1028.62 3090.41 1028.62"/><polygon class="cls-1" points="2434.51 1110.5 2330.46 1070.26 2228.43 1115.38 2188.19 1219.43 2233.31 1321.46 2337.36 1361.71 2439.39 1316.59 2479.63 1212.53 2434.51 1110.5"/><polygon class="cls-1" points="1629.8 740.61 1533.18 684.83 1425.42 713.71 1369.64 810.32 1398.52 918.08 1495.13 973.86 1602.89 944.99 1658.67 848.37 1629.8 740.61"/><circle class="cls-1" cx="2333.91" cy="1215.98" r="77.13"/><path d="M2332.27,1245.07c-5.86,0-10.34-2.94-13.31-8.74s-4.39-13.21-4.39-22.42a83.68,83.68,0,0,1,1.33-15.9,22,22,0,0,1,5.29-11c2.66-2.81,6.38-4.23,11.08-4.23s7.89.59,9.95,1.81l.29.17v8.75l-.9-.52A17.18,17.18,0,0,0,2333,1191c-3.8,0-6.24,1.86-7.43,5.68-1.25,4-1.89,9.74-1.89,17.1,0,15,2.89,22.69,8.59,22.69a16.32,16.32,0,0,0,9.22-2.36l.93-.63v9.21l-.3.17A20.06,20.06,0,0,1,2332.27,1245.07Z"/><path class="cls-2" d="M2332.27,1183.35q6.74,0,9.64,1.72v7.37a17.65,17.65,0,0,0-8.91-2q-6.09,0-8,6.1t-1.92,17.28q0,23.28,9.19,23.28,5.91,0,9.55-2.45v7.73a19.3,19.3,0,0,1-9.55,2.09q-8.46,0-12.78-8.41t-4.32-22.15a82.42,82.42,0,0,1,1.32-15.78,21.22,21.22,0,0,1,5.14-10.74q3.82-4,10.64-4m0-1.2c-4.87,0-8.74,1.48-11.51,4.42a22.49,22.49,0,0,0-5.45,11.33,84,84,0,0,0-1.34,16c0,9.31,1.5,16.94,4.45,22.7,3.09,6,7.75,9.06,13.85,9.06a20.65,20.65,0,0,0,10.14-2.24l.61-.35v-10.69l-1.87,1.26a15.64,15.64,0,0,1-8.88,2.26c-5.3,0-8-7.44-8-22.09,0-7.3.63-13,1.86-16.93,1.12-3.58,3.3-5.25,6.86-5.25a16.55,16.55,0,0,1,8.31,1.84l1.8,1v-10.13l-.58-.35c-2.16-1.27-5.51-1.89-10.26-1.89Z"/><text class="cls-3" transform="translate(1943 780.28)">START/PAUSE</text><g id="layer1"><g id="g107205"><path id="path17743" class="cls-2" d="M1919.07,554.24l-24.68,43h30.87V587.19h-13.79l12.71-20.84,17.29,30.93h12.78l-24.89-43h-10.29"/><path id="path17745" class="cls-2" d="M1982.16,597.28l13.18-22.86v22.86H2006v-43H1995.4l-17.48,30.26-17.49-30.26h-10.56v43h10.56V574.42l13.25,22.86h8.48"/><path id="path17747" class="cls-2" d="M1895.8,571.05H1869v9.42h15.46v6.72h-27.64V563.66h38.47v-9.42h-38.87c-8.41,0-11.1,2.69-11.1,10.76v21.52c0,8.07,2.69,10.76,11.1,10.76h28.18c8.47,0,11.16-2.69,11.16-10.76V571.05"/><path id="path17749" class="cls-2" d="M2099.85,554.24h-25.22c-8.41,0-11.1,2.69-11.1,10.76v21.52c0,8.07,2.69,10.76,11.1,10.76h25.22c8.41,0,11.16-2.69,11.16-10.76v-8.07h-11.56v8.74H2075V563.66h24.42v7.39H2111v-6c0-8.07-2.75-10.76-11.16-10.76"/><path id="path17751" class="cls-2" d="M2152.11,587.19h-25v-33h-11.5v32.28c0,8.07,2.69,10.76,11.09,10.76h25.83c8.47,0,11.16-2.69,11.16-10.76V554.24h-11.56v33"/><path id="path17753" class="cls-2" d="M2210.55,575.09a7.54,7.54,0,0,0,4.3-6.73V563c0-6.05-3.29-8.74-10.22-8.74h-35.91v43h33.42c8.68,0,13.12-3.36,13.12-9.41v-5.38A7.73,7.73,0,0,0,2210.55,575.09ZM2180.22,563h20.58c3.22,0,3.36.68,3.36,2v3.36c0,1.35-.14,2-3.36,2h-20.58Zm24.21,22.2c0,2-.41,2.69-3.57,2.69h-20.64v-8.75h20.64c3.16,0,3.57.68,3.57,2.69v3.37"/><path id="path17755" class="cls-2" d="M2231.06,579.12h18.83v-8.74h-18.83V563h32.35v-8.74h-43.85v43h44.19V587.19h-32.69v-8.07"/><path id="path17757" class="cls-2" d="M2022.58,579.12h18.83v-8.74h-18.83V563h32.28v-8.74h-43.79v43h44.19V587.19h-32.68v-8.07"/><path id="path17759" class="cls-2" d="M2144.51,542.13V509.18h-6.26V530.7l-10.69-21.52h-8.41v32.95h6.26V516.58l12.84,25.55h6.26"/><path id="path17763" class="cls-2" d="M1963,516.58l12.91,25.55h6.19V509.18h-6.26V530.7l-10.62-21.52h-8.48v32.95H1963V516.58"/><path id="path17767" class="cls-2" d="M1860.36,516.58l12.91,25.55h6.19V509.18h-6.25V530.7l-10.63-21.52h-8.47v32.95h6.25V516.58"/><path id="path17771" class="cls-2" d="M1914.57,509.18h7.06v32.95h-7.06Z"/><path id="path17775" class="cls-2" d="M2020.83,542.13h6.72V514.56h10.56v-5.38H2010.2v5.38h10.63v27.57"/><path id="path17779" class="cls-2" d="M2190.44,542.13c5.78,0,10.42-3.36,10.42-8.07V517.92c0-4.7-4.64-8.74-10.42-8.74h-15.2v32.95Zm-9-27.57h8.81c2.22,0,4.44,1.35,4.44,3.36v15.47c0,2.69-2.29,4-4.44,4h-8.81V514.56"/><path id="path17783" class="cls-2" d="M2255.81,517.92c0-4.7-4.71-8.74-10.42-8.74h-5.59c-5.71,0-10.42,4-10.42,8.74v16.14c0,4.71,4.71,8.75,10.42,8.75h5.59c5.71,0,10.42-4,10.42-8.75Zm-6.19,16.14c0,2-2.28,3.37-4.44,3.37H2240c-2.22,0-4.44-1.35-4.44-3.37V517.92c0-2,2.22-3.36,4.44-3.36h5.17c2.16,0,4.44,1.35,4.44,3.36v16.14"/><path id="path17787" class="cls-2" d="M2064,534.06c0,4.71,4.37,8.07,10,8.07h14.46v-4.7h-13.86c-2.15,0-4.37-2-4.37-4V528h18.23v-5.38h-18.23v-4.71c0-2,2.22-3.36,4.37-3.36h13.86v-5.38h-14.26c-5.65.67-10.16,4-10.16,8.74v16.14"/></g></g><path d="M2368.61,961.5v-61h13.7c10,0,15.06,4.24,15.06,12.61v5.36c0,5.47-2.33,9.35-6.94,11.59,5.33,2.08,8,6.11,8,12v4.19a16.27,16.27,0,0,1-3.69,10.85c-2.47,2.91-6.54,4.39-12.1,4.39Zm13.7-8.75a7.19,7.19,0,0,0,5.05-1.61c1.14-1.06,1.72-3.07,1.72-6v-3.1c0-5.41-2.33-8-7.13-8h-4v18.72Zm-.64-26.56c4.56,0,6.77-2.51,6.77-7.68V915c0-4.13-2.24-6.14-6.86-6.14h-3.67v17.36Z"/><path class="cls-2" d="M2382.31,901.14q14.46,0,14.46,12v5.36q0,8.65-8,11.65,9.09,2.73,9.09,11.91v4.19a15.64,15.64,0,0,1-3.54,10.46q-3.56,4.18-11.65,4.18h-13.46V901.14h13.1m-5,25.65h4.36q7.38,0,7.37-8.28V915q0-6.74-7.46-6.74h-4.27v18.56m0,26.56h5a7.75,7.75,0,0,0,5.46-1.77q1.91-1.77,1.91-6.41v-3.1q0-8.64-7.73-8.64h-4.64v19.92m5-53.41H2368V962.1h14.66c5.75,0,10-1.55,12.56-4.61a16.82,16.82,0,0,0,3.83-11.23v-4.19c0-5.7-2.43-9.74-7.24-12,4.09-2.4,6.15-6.27,6.15-11.53v-5.36c0-6-2.71-13.21-15.66-13.21Zm-3.8,9.49h3.07c4.33,0,6.26,1.71,6.26,5.54v3.54c0,4.83-2,7.08-6.17,7.08h-3.16V909.43Zm0,25.2H2382c4.45,0,6.53,2.37,6.53,7.44v3.1c0,2.73-.52,4.59-1.53,5.53a6.65,6.65,0,0,1-4.64,1.45h-3.8V934.63Z"/><circle class="cls-1" cx="2381.65" cy="931.02" r="61.02"/><path d="M2591.3,857.07l-2.91-11.74h-12.7L2573,857.07h-9.42l14.29-61h8.5l14.29,61Zm-4.55-19.67L2582.12,815l-4.71,22.39Z"/><path class="cls-2" d="M2585.85,796.7l14,59.77h-8.09l-2.91-11.74h-13.65l-2.73,11.74h-8.18l14-59.77h7.55m-9.18,41.3h10.82l-5.37-25.92L2576.67,838m10.13-42.5h-9.45l-.21.93-14,59.76-.35,1.48h10.66l.21-.93,2.51-10.81h11.76l2.68,10.82.23.92h10.55l-.35-1.48-14-59.76-.22-.93Zm-8.65,41.3,4-18.85L2586,836.8Z"/><circle class="cls-1" cx="2582.08" cy="833.09" r="100.93"/><polygon points="2520.8 673.43 2520.8 647.54 2509.38 612.46 2518.93 612.46 2525.5 635.39 2532.32 612.46 2541.97 612.46 2530.27 647.54 2530.27 673.43 2520.8 673.43"/><path class="cls-2" d="M2541.13,613.06l-11.46,34.39v25.38h-8.27V647.45l-11.19-34.39h8.27l7,24.47,7.27-24.47h8.37m1.67-1.2h-10.93l-.26.86-6.1,20.53-5.87-20.52-.25-.87h-10.84l.51,1.57,11.14,34.21V674h10.67V647.64l11.4-34.2.53-1.58Z"/><path class="cls-1" d="M2621.07,637.33c-.44-84.83-188.1-40.61-186.93,24.67-.52,31.4,34.76,53.37,63,38.54a153.78,153.78,0,0,1,81.67-18.71A44.55,44.55,0,0,0,2621.07,637.33Z"/><polygon points="2778.87 818.72 2772.67 799.34 2766.46 818.72 2756.62 818.72 2767.84 787.73 2757.26 757.75 2766.64 757.75 2772.67 776.09 2778.78 757.75 2788.17 757.75 2777.4 787.73 2788.62 818.72 2778.87 818.72"/><path class="cls-2" d="M2787.31,758.35l-10.55,29.38,11,30.39h-8.46l-6.64-20.74L2766,818.12h-8.55l11-30.39-10.37-29.38h8.1l6.46,19.65,6.55-19.65h8.09m1.71-1.2h-10.67l-.27.82-5.41,16.21-5.32-16.2-.27-.83h-10.66l.56,1.6,10.23,29-10.86,30-.59,1.61h11.14l.27-.84,5.5-17.17,5.49,17.17.27.84h11.05l-.59-1.61-10.85-30,10.4-29,.58-1.61Z"/><path class="cls-1" d="M2785.86,882.21c84.76-3.45,33.9-189.42-31.29-185.94-31.4.6-52.11,36.64-36.29,64.29a153.63,153.63,0,0,1,21.61,81A44.54,44.54,0,0,0,2785.86,882.21Z"/><circle class="cls-1" cx="2048" cy="850.59" r="41.97"/><circle class="cls-1" cx="1514.16" cy="829.35" r="73.26"/><circle class="cls-1" cx="1514.16" cy="829.35" r="51.8"/><circle class="cls-1" cx="1514.16" cy="829.35" r="24.93"/><path d="M3197.57,1242.19v-61h13.69c10,0,15.07,4.24,15.07,12.61v5.37c0,5.46-2.33,9.35-6.94,11.58,5.33,2.09,8,6.11,8,12v4.18a16.27,16.27,0,0,1-3.69,10.85c-2.47,2.92-6.54,4.4-12.1,4.4Zm13.69-8.75a7.19,7.19,0,0,0,5-1.62c1.15-1.06,1.72-3.07,1.72-6v-3.09c0-5.41-2.33-8-7.13-8h-4v18.73Zm-.63-26.56c4.55,0,6.77-2.52,6.77-7.68v-3.55c0-4.13-2.25-6.13-6.86-6.13h-3.68v17.36Z"/><path class="cls-2" d="M3211.26,1181.82q14.47,0,14.47,12v5.37q0,8.64-8,11.64,9.11,2.73,9.1,11.92v4.18a15.6,15.6,0,0,1-3.55,10.46c-2.36,2.79-6.25,4.19-11.64,4.19h-13.46v-59.77h13.09m-5,25.65h4.37q7.36,0,7.37-8.27v-3.55q0-6.74-7.46-6.73h-4.28v18.55m0,26.57h5a7.73,7.73,0,0,0,5.46-1.78c1.28-1.18,1.91-3.32,1.91-6.41v-3.09q0-8.64-7.73-8.65h-4.64V1234m5-53.42H3197v62.17h14.66c5.74,0,10-1.56,12.56-4.61a16.87,16.87,0,0,0,3.83-11.24v-4.18c0-5.71-2.44-9.74-7.25-12,4.09-2.4,6.16-6.27,6.16-11.52v-5.37c0-6-2.72-13.21-15.67-13.21Zm-3.8,9.5h3.08c4.33,0,6.26,1.7,6.26,5.53v3.55c0,4.83-2,7.07-6.17,7.07h-3.17v-16.15Zm0,25.19h3.44c4.46,0,6.53,2.37,6.53,7.45v3.09c0,2.73-.51,4.59-1.52,5.53a6.61,6.61,0,0,1-4.65,1.46h-3.8v-17.53Z"/><circle class="cls-1" cx="3210.6" cy="1211.7" r="61.02"/><polygon points="3203.83 778.27 3203.83 752.85 3192.62 718.4 3202.02 718.4 3208.46 740.88 3215.14 718.4 3224.64 718.4 3213.15 752.85 3213.15 778.27 3203.83 778.27"/><path class="cls-2" d="M3223.8,719l-11.25,33.75v24.92h-8.12V752.75l-11-33.75h8.13l6.88,24,7.14-24h8.21m1.67-1.2h-10.78l-.25.86-6,20.08-5.75-20.07-.25-.87h-10.68l.51,1.57,10.93,33.57v25.93h10.52V753l11.19-33.57.53-1.58Z"/><path class="cls-1" d="M3208.62,699.84c-48-.8-96.12,16.61-95.06,54.65-.67,25.33,22.72,47.38,48.61,44,1.34-.12,2.68-.3,4-.54a152.63,152.63,0,0,1,41.31-6l1.11,0,1.11,0a152.65,152.65,0,0,1,41.32,6c1.35.24,2.69.42,4,.54,25.89,3.36,49.28-18.69,48.61-44C3304.75,716.45,3256.65,699,3208.62,699.84Z"/><polygon points="3215.61 902.98 3209.67 884.44 3203.73 902.98 3194.23 902.98 3205.01 873.21 3194.85 844.4 3203.9 844.4 3209.67 861.96 3215.52 844.4 3224.59 844.4 3214.24 873.21 3225.02 902.98 3215.61 902.98"/><path class="cls-2" d="M3223.73,845l-10.13,28.21,10.57,29.17H3216l-6.37-19.91-6.38,19.91h-8.21l10.57-29.17-10-28.21h7.78l6.2,18.87L3216,845h7.77m1.71-1.2h-10.35l-.27.82-5.14,15.43-5.07-15.42-.27-.83H3194l.56,1.6,9.82,27.81L3194,902l-.58,1.6h10.8l.26-.83,5.24-16.34,5.23,16.34.27.83h10.71l-.58-1.6-10.43-28.77,10-27.8.58-1.61Z"/><path class="cls-1" d="M3210.6,825.41c-48-.81-96.12,16.6-95.06,54.64-.67,25.34,22.72,47.38,48.61,44,1.34-.12,2.68-.29,4-.54a152.58,152.58,0,0,1,41.31-6h2.22a152.65,152.65,0,0,1,41.32,6c1.35.25,2.69.42,4,.54,25.89,3.36,49.28-18.68,48.6-44C3306.72,842,3258.63,824.6,3210.6,825.41Z"/><path d="M3218.11,1054.92l-2.32-9.33h-9.9l-2.17,9.33H3196l11.42-48.73h6.95l11.43,48.73Zm-3.67-15.89-3.53-17.08-3.6,17.08Z"/><path class="cls-2" d="M3213.88,1006.79l11.14,47.53h-6.44l-2.31-9.33h-10.86l-2.17,9.33h-6.51l11.14-47.53h6m-7.31,32.84h8.61l-4.27-20.61-4.34,20.61m8.26-34h-7.91l-.22.92-11.14,47.54-.34,1.47h9l.21-.93,2-8.4h9l2.09,8.42.22.91h8.89l-.34-1.47-11.14-47.54-.22-.92Zm-6.78,32.84,2.85-13.54,2.81,13.54Z"/><circle class="cls-1" cx="3210.88" cy="1035.73" r="80.27"/><path class="cls-1" d="M3198.2,266.19c-59.18,0-93.77,91.83-59.11,91.83h118.22c34.12,0,1-91.82-59.11-91.82Z"/><path d="M3207.51,345l-12.84-27v27h-9.3V284h12.24c5.47,0,9.65,1.29,12.42,3.84s4.19,6.83,4.19,12.68c0,4.42-1,8-2.94,10.55a11.66,11.66,0,0,1-7.94,4.41L3217.49,345Zm-10.44-34.94c2.61,0,4.57-.66,5.85-2s1.92-3.9,1.92-7.72c0-2.87-.57-5-1.68-6.25s-3-1.88-5.64-1.88h-2.85v17.81Z"/><path class="cls-2" d="M3197.61,284.63q8,0,12,3.69t4,12.23q0,6.46-2.82,10.19t-8.37,4.27l14.1,29.38h-8.64l-13.82-29v29H3186V284.63h11.64m-3.54,26h3c2.79,0,4.88-.72,6.27-2.14s2.1-4.14,2.1-8.14c0-3-.61-5.25-1.82-6.64s-3.25-2.09-6.1-2.09h-3.45v19m3.54-27.22h-12.84v62.16h10.5V320.68l11.54,24.23.32.68h11.31l-.82-1.71L3204.22,316a11.94,11.94,0,0,0,7.54-4.5c2-2.69,3.06-6.36,3.06-10.91,0-6-1.47-10.44-4.39-13.12s-7.19-4-12.82-4Zm-2.34,9.41h2.25c2.47,0,4.22.56,5.19,1.68s1.53,3.13,1.53,5.85c0,4.55-1,6.48-1.75,7.3-1.16,1.18-3,1.78-5.42,1.78h-1.8V292.84Z"/><path class="cls-1" d="M896.5,324c-59.18,0-93.77,91.83-59.11,91.83H955.61c34.12,0,1-91.83-59.11-91.83Z"/><polygon points="886.33 402.76 886.33 341.8 895.63 341.8 895.63 394.1 912.82 394.1 912.82 402.76 886.33 402.76"/><path class="cls-2" d="M895,342.4v52.3h17.19v7.46H886.93V342.4H895m1.2-1.2h-10.5v62.16h27.69V393.5H896.23V341.2Z"/><path class="cls-1" d="M3243.61,382.43h-92.53a41.39,41.39,0,1,0,0,82.78h92.53a41.39,41.39,0,0,0,0-82.78Z"/><polygon points="3182.21 454.3 3201.49 401.63 3185.2 401.63 3185.2 393.34 3214.13 393.34 3194.93 445.64 3212.23 445.64 3212.23 454.3 3182.21 454.3"/><path class="cls-2" d="M3213.27,393.94l-19.2,52.3h17.56v7.46h-28.56L3202.35,401h-16.56v-7.09h27.48m1.71-1.2h-30.39v9.49h16l-18.69,51.06-.59,1.61h31.48V445h-17l18.6-50.69.59-1.61Z"/><polyline class="cls-1" points="1670.84 1298.04 1464.06 1504.82 926.02 1504.82"/><path class="cls-4" d="M787,1757.83h28.35a3.46,3.46,0,0,1,3.46,3.46v28.35a7.63,7.63,0,0,0,7.63,7.63h24.21a7.62,7.62,0,0,0,7.63-7.63v-28.35a3.46,3.46,0,0,1,3.46-3.46h28.36a7.64,7.64,0,0,0,7.63-7.63V1726a7.63,7.63,0,0,0-7.63-7.63H861.76a3.46,3.46,0,0,1-3.46-3.46v-28.36a7.63,7.63,0,0,0-7.63-7.63H826.46a7.64,7.64,0,0,0-7.63,7.63v28.36a3.46,3.46,0,0,1-3.46,3.46H787a7.63,7.63,0,0,0-7.64,7.63v24.21A7.64,7.64,0,0,0,787,1757.83Z"/><path class="cls-5" d="M882.69,1737.8,872,1733.06a.58.58,0,0,0-.89.49V1743a.58.58,0,0,0,.89.49l10.73-4.74A.58.58,0,0,0,882.69,1737.8Z"/><path d="M815.37,1718.56H787a7.64,7.64,0,0,0-7.64,7.63v24.21A7.63,7.63,0,0,0,787,1758h28.35c1.91,0,8.46,1.55,8.46,3.46V1715.1C823.83,1717,817.28,1718.56,815.37,1718.56Zm-9.31,19.74V1743a.58.58,0,0,1-.89.49l-10.73-4.74a.58.58,0,0,1,0-1l10.73-4.74a.58.58,0,0,1,.89.49Z"/><path class="cls-5" d="M838.07,1693.49l-4.74,10.73a.58.58,0,0,0,.5.89h9.48a.58.58,0,0,0,.49-.89l-4.74-10.73A.58.58,0,0,0,838.07,1693.49Z"/><path class="cls-5" d="M839.06,1782.69,843.8,1772a.58.58,0,0,0-.49-.88h-9.48a.58.58,0,0,0-.5.88l4.74,10.73A.58.58,0,0,0,839.06,1782.69Z"/><path class="cls-4" d="M818.83,1232.77v30.35a3.46,3.46,0,0,1-3.46,3.46H785a7.64,7.64,0,0,0-7.64,7.63v24.21a7.64,7.64,0,0,0,7.64,7.64h30.35a3.45,3.45,0,0,1,3.46,3.45v30.36a7.64,7.64,0,0,0,7.63,7.63h24.21a7.63,7.63,0,0,0,7.63-7.63v-30.36a3.45,3.45,0,0,1,3.46-3.45h30.36a7.64,7.64,0,0,0,7.63-7.64v-24.21a7.64,7.64,0,0,0-7.63-7.63H861.76a3.46,3.46,0,0,1-3.46-3.46v-30.35a7.62,7.62,0,0,0-7.63-7.63H826.46A7.63,7.63,0,0,0,818.83,1232.77Z"/><path class="cls-5" d="M838.86,1330.44l4.74-10.73a.58.58,0,0,0-.5-.88h-9.48a.58.58,0,0,0-.49.88l4.74,10.73A.58.58,0,0,0,838.86,1330.44Z"/><path d="M858.1,1263.12v-30.35a7.63,7.63,0,0,0-7.63-7.63H826.26a7.62,7.62,0,0,0-7.63,7.63v30.35c0,1.91-1.55,8.46-3.46,8.46h46.39C859.65,1271.58,858.1,1265,858.1,1263.12Zm-15-9.31h-9.48a.58.58,0,0,1-.49-.88l4.74-10.74a.58.58,0,0,1,1,0l4.74,10.74A.58.58,0,0,1,843.1,1253.81Z"/><path class="cls-5" d="M883.17,1285.82l-10.73-4.74a.58.58,0,0,0-.89.5v9.48a.59.59,0,0,0,.89.5l10.73-4.75A.58.58,0,0,0,883.17,1285.82Z"/><path class="cls-5" d="M794,1286.81l10.74,4.75a.58.58,0,0,0,.88-.5v-9.48a.58.58,0,0,0-.88-.5L794,1285.82A.58.58,0,0,0,794,1286.81Z"/><path class="cls-4" d="M892.52,1417.17H862.17a3.46,3.46,0,0,1-3.46-3.46v-30.35a7.63,7.63,0,0,0-7.63-7.63H826.87a7.62,7.62,0,0,0-7.63,7.63v30.35a3.46,3.46,0,0,1-3.46,3.46H785.42a7.64,7.64,0,0,0-7.63,7.64V1449a7.64,7.64,0,0,0,7.63,7.64h30.36a3.45,3.45,0,0,1,3.46,3.45v30.36a7.62,7.62,0,0,0,7.63,7.63h24.21a7.63,7.63,0,0,0,7.63-7.63V1460.1a3.45,3.45,0,0,1,3.46-3.45h30.35a7.64,7.64,0,0,0,7.64-7.64v-24.2A7.64,7.64,0,0,0,892.52,1417.17Z"/><path class="cls-5" d="M794.85,1437.2l10.73,4.74a.58.58,0,0,0,.89-.49V1432a.58.58,0,0,0-.89-.49l-10.73,4.74A.58.58,0,0,0,794.85,1437.2Z"/><path d="M892.52,1417H862.17c-1.91,0-8.45-1.55-8.45-3.46v46.39c0-1.91,6.54-3.46,8.45-3.46h30.35a7.63,7.63,0,0,0,7.64-7.63V1424.6A7.64,7.64,0,0,0,892.52,1417Zm-9.42,20.23-10.73,4.74a.58.58,0,0,1-.89-.49V1432a.58.58,0,0,1,.89-.49l10.73,4.74A.58.58,0,0,1,883.1,1437.2Z"/><path class="cls-5" d="M839.47,1481.51l4.74-10.73a.58.58,0,0,0-.49-.88h-9.49a.58.58,0,0,0-.49.88l4.74,10.73A.58.58,0,0,0,839.47,1481.51Z"/><path class="cls-5" d="M838.48,1392.31l-4.74,9.73a.58.58,0,0,0,.49.88h9.49a.58.58,0,0,0,.49-.88l-4.74-9.73A.58.58,0,0,0,838.48,1392.31Z"/><path class="cls-4" d="M859,1641.05V1610.7a3.46,3.46,0,0,1,3.46-3.46h30.35a7.63,7.63,0,0,0,7.63-7.64v-24.2a7.63,7.63,0,0,0-7.63-7.64H862.48a3.45,3.45,0,0,1-3.46-3.45V1534a7.64,7.64,0,0,0-7.64-7.63h-24.2a7.64,7.64,0,0,0-7.64,7.63v30.36a3.44,3.44,0,0,1-3.45,3.45H785.73a7.64,7.64,0,0,0-7.63,7.64v24.2a7.64,7.64,0,0,0,7.63,7.64h30.36a3.45,3.45,0,0,1,3.45,3.46v30.35a7.63,7.63,0,0,0,7.64,7.63h24.2A7.63,7.63,0,0,0,859,1641.05Z"/><path class="cls-5" d="M839,1543.38l-4.74,10.73a.58.58,0,0,0,.49.88h9.49a.58.58,0,0,0,.49-.88L840,1543.38A.58.58,0,0,0,839,1543.38Z"/><path d="M816.3,1602.24c1.91,0,3.45,6.55,3.45,8.46v30.35a7.62,7.62,0,0,0,7.63,7.63h24.21a7.63,7.63,0,0,0,7.63-7.63V1610.7c0-1.91,1.56-8.46,3.47-8.46Zm28.42,18.65L840,1631.63a.58.58,0,0,1-1,0l-4.74-10.74a.58.58,0,0,1,.49-.88h9.49A.58.58,0,0,1,844.72,1620.89Z"/><path class="cls-5" d="M794.68,1588l10.73,4.74a.59.59,0,0,0,.89-.5v-9.48a.59.59,0,0,0-.89-.5L794.68,1587A.58.58,0,0,0,794.68,1588Z"/><path class="cls-5" d="M883.88,1587l-10.73-4.75a.58.58,0,0,0-.88.5v9.48a.58.58,0,0,0,.88.5l10.73-4.74A.58.58,0,0,0,883.88,1587Z"/><polyline class="cls-1" points="2468.66 1342.67 2745.1 1619.11 3145.42 1619.11"/><polyline class="cls-1" points="1468.48 914.95 1376.57 1006.86 1006.49 1006.86"/></g><g id="Layer_3" data-name="Layer 3"><path class="cls-1" d="M1882.92,1036.79c-61.17-54.71-59.06-118.15-51.57-193.44,0-167.15-135.51-302.65-302.65-302.65-317.43-1.55-420,438.31-132.39,575.66,71.14,25.93,129.35,52,151.84,130.79a214.68,214.68,0,0,0,213,183.52C1971.13,1432.63,2057.1,1151.51,1882.92,1036.79Z"/><path class="cls-1" d="M2213.08,1043.14c61.17-54.71,59.06-118.15,51.57-193.44,0-167.15,135.51-302.65,302.65-302.65,317.43-1.54,420,438.31,132.39,575.67-71.14,25.92-129.35,52-151.84,130.79a214.68,214.68,0,0,1-213,183.52C2124.87,1439,2038.9,1157.87,2213.08,1043.14Z"/><path class="cls-1" d="M1449.91,550.08a313.55,313.55,0,0,1,78.79-9.38c167.14,0,302.65,135.5,302.65,302.65-4.79,48.15-7.38,91.46,7.38,130.74,62.14-18.93,133.45-29.7,209.27-29.7,76.65,0,148.68,11,211.3,30.32,12.48-37.75,9.91-79.18,5.35-125,0-167.15,135.51-302.65,302.65-302.65,37.92-.18,72.76,5.94,104.25,17.09-150-86.81-373.67-141.9-623.55-141.9C1811.89,422.24,1599.16,471.42,1449.91,550.08Z"/><path class="cls-1" d="M2259.29,974.09c-122.77-39.29-297.78-39.29-420.56,0,.07.18.15.37.22.56l-.22.06a147.8,147.8,0,0,0,7.12,17.66c.4,0,2.11,1.63,2.58,2.45,40.9-9.13,130.9,1.35,174.33,9.85,17.36,3.4,35.65,4.11,52.86,0,41.38-9.85,131.55-19,174-9.86.93.2,2.18-2.46,2.59-2.45a147.73,147.73,0,0,0,7.11-17.66l-.21-.06Z"/><path class="cls-1" d="M1488,543l1.67-.2Z"/><path class="cls-1" d="M1494.73,542.28l1.93-.18Z"/><path class="cls-1" d="M1502.32,541.62h0l-.83.07Z"/><path class="cls-1" d="M1449.91,550.08h0a905.35,905.35,0,0,1,113.71-49.77c-94-24.2-148.79,33.59-174,72.49A284,284,0,0,1,1449.91,550.08Z"/><path class="cls-1" d="M1474.9,544.88l1.14-.18Z"/><path class="cls-1" d="M1462.16,547.25l.63-.13Z"/><path class="cls-1" d="M1456,548.61l.33-.07Z"/><path class="cls-1" d="M1481.42,543.88l1.39-.19Z"/><path class="cls-1" d="M1468.48,546l.89-.17Z"/><path class="cls-1" d="M2551.8,547.44q-7.68.39-15.25,1.16Q2544.13,547.84,2551.8,547.44Z"/><path class="cls-1" d="M2559.52,547.15q-3.46.09-6.91.26Q2556.06,547.24,2559.52,547.15Z"/><path class="cls-1" d="M2760.47,586.13C2740,562,2701.8,541.86,2701.8,541.86c-99.28-59.7-172.1-58-203.07-53.09,64.6,21,122.79,46.42,172.78,75.35a281.14,281.14,0,0,1,84,47.19l4.95-1.45C2771.78,603.64,2760.47,586.13,2760.47,586.13Z"/><path class="cls-1" d="M1524.29,1196.21c-29.23-41.17-75-60.55-128-79.85-112.35-53.65-165.16-153.46-168.89-255.1-31.35,148.83-59.48,383.27-38.42,709.74,0,0,18,161.33,100.67,183.33,36.74,9.78,65.58-3.09,86.28-20.41a128.09,128.09,0,0,0,43.57-76.24C1436.23,1562.64,1495.06,1237.36,1524.29,1196.21Z"/><path class="cls-1" d="M1725.77,1106.72v70.53a.76.76,0,0,1-.76.76h-70.53a8.35,8.35,0,0,0-8.35,8.35v55.1a8.35,8.35,0,0,0,8.35,8.35H1725a.76.76,0,0,1,.76.76v70.52a8.35,8.35,0,0,0,8.35,8.35h55.1a8.35,8.35,0,0,0,8.35-8.35v-70.52a.75.75,0,0,1,.75-.76h70.53a8.35,8.35,0,0,0,8.35-8.35v-55.1a8.35,8.35,0,0,0-8.35-8.35h-70.53a.75.75,0,0,1-.75-.76v-70.53a8.35,8.35,0,0,0-8.35-8.35h-55.1A8.35,8.35,0,0,0,1725.77,1106.72Z"/><path d="M1760.14,1119.18,1745.5,1152c-.74,1.64.12,3.75,1.53,3.75h29.28c1.4,0,2.26-2.11,1.53-3.75l-14.64-32.83A1.58,1.58,0,0,0,1760.14,1119.18Z"/><path d="M1763.2,1305.05l14.64-32.84c.73-1.64-.13-3.75-1.53-3.75H1747c-1.41,0-2.27,2.11-1.53,3.75l14.64,32.84A1.59,1.59,0,0,0,1763.2,1305.05Z"/><circle cx="1761.67" cy="1213.91" r="18.43"/><path d="M1668.73,1215.44l32.83,14.64c1.65.73,3.76-.13,3.76-1.53v-29.28c0-1.4-2.11-2.26-3.76-1.53l-32.83,14.64A1.58,1.58,0,0,0,1668.73,1215.44Z"/><path d="M1854.6,1212.38l-32.83-14.64c-1.64-.73-3.75.13-3.75,1.53v29.28c0,1.4,2.11,2.26,3.75,1.53l32.83-14.64A1.58,1.58,0,0,0,1854.6,1212.38Z"/><path class="cls-1" d="M2873.94,861.26a221,221,0,0,0-5.65-22.88c6.13,111.31-45.48,225.54-168.6,284.34-49.51,18-92.75,36.15-122.05,72.06a3.35,3.35,0,0,1-.56,1.43c29.23,41.15,88.06,366.43,104.77,461.47a128.09,128.09,0,0,0,43.57,76.24c20.7,17.32,49.54,30.19,86.28,20.41,82.67-22,100.67-183.33,100.67-183.33C2933.43,1244.53,2905.3,1010.09,2873.94,861.26Z"/></g></svg>