<?xml version="1.0" encoding="utf-8"?>
<!-- Generator: Adobe Illustrator 26.0.3, SVG Export Plug-In . SVG Version: 6.00 Build 0)  -->
<svg version="1.1" id="Layer_1" xmlns="http://www.w3.org/2000/svg" xmlns:xlink="http://www.w3.org/1999/xlink" x="0px" y="0px"
	 viewBox="0 0 4096 2160" style="enable-background:new 0 0 4096 2160;" xml:space="preserve">
<style type="text/css">
	.st0{fill:none;stroke:#FFFFFF;stroke-width:7;stroke-miterlimit:10;}
	.st1{fill:#FFFFFF;}
	.st2{font-family:'FuturaCondensedPlain';}
	.st3{font-size:46.18px;}
	.st4{letter-spacing:2;}
	.st5{fill:none;stroke:#FFFFFF;stroke-miterlimit:10;}
	.st6{fill:none;stroke:#FFFFFF;stroke-width:10;stroke-miterlimit:10;}
	.st7{fill:#FFFFFF;stroke:#FFFFFF;stroke-miterlimit:10;}
</style>
<g id="Layer_1_00000073710610050961920360000007316056855731236024_">
	<polyline class="st0" points="2702.6,482.5 2873.4,371 3106.6,371 	"/>
	<polyline class="st0" points="1395.1,482.5 1222.6,369.9 989.3,369.9 	"/>
	<polyline class="st0" points="2675.4,983.7 2720.3,1028.6 3090.4,1028.6 	"/>
	<polygon class="st0" points="2434.5,1110.5 2330.5,1070.3 2228.4,1115.4 2188.2,1219.4 2233.3,1321.5 2337.4,1361.7 2439.4,1316.6 
		2479.6,1212.5 	"/>
	<polygon class="st0" points="1629.8,740.6 1533.2,684.8 1425.4,713.7 1369.6,810.3 1398.5,918.1 1495.1,973.9 1602.9,945 
		1658.7,848.4 	"/>
	<circle class="st0" cx="2333.9" cy="1216" r="77.1"/>
	<path class="st1" d="M2332.3,1245.1c-5.9,0-10.3-2.9-13.3-8.7s-4.4-13.2-4.4-22.4c-0.1-5.3,0.4-10.7,1.3-15.9
		c0.7-4.1,2.5-7.9,5.3-11c2.7-2.8,6.4-4.2,11.1-4.2s7.9,0.6,9.9,1.8l0.3,0.2v8.8l-0.9-0.5c-2.6-1.4-5.6-2.1-8.6-2
		c-3.8,0-6.2,1.9-7.4,5.7c-1.2,4-1.9,9.7-1.9,17.1c0,15,2.9,22.7,8.6,22.7c3.2,0.1,6.4-0.7,9.2-2.4l0.9-0.6v9.2l-0.3,0.2
		C2339.1,1244.4,2335.7,1245.2,2332.3,1245.1z"/>
	<path class="st1" d="M2332.3,1183.3c4.5,0,7.7,0.6,9.6,1.7v7.4c-2.7-1.4-5.8-2.1-8.9-2c-4.1,0-6.7,2-8,6.1s-1.9,9.8-1.9,17.3
		c0,15.5,3.1,23.3,9.2,23.3c3.9,0,7.1-0.8,9.6-2.4v7.7c-3,1.5-6.2,2.2-9.6,2.1c-5.6,0-9.9-2.8-12.8-8.4c-2.9-5.6-4.3-13-4.3-22.2
		c-0.1-5.3,0.4-10.6,1.3-15.8c0.7-4,2.4-7.7,5.1-10.7C2324.2,1184.7,2327.7,1183.4,2332.3,1183.3 M2332.3,1182.2
		c-4.9,0-8.7,1.5-11.5,4.4c-2.9,3.2-4.7,7.1-5.4,11.3c-1,5.3-1.4,10.6-1.3,16c0,9.3,1.5,16.9,4.4,22.7c3.1,6,7.8,9.1,13.9,9.1
		c3.5,0.1,7-0.6,10.1-2.2l0.6-0.3v-10.7l-1.9,1.3c-2.7,1.6-5.8,2.4-8.9,2.3c-5.3,0-8-7.4-8-22.1c0-7.3,0.6-13,1.9-16.9
		c1.1-3.6,3.3-5.2,6.9-5.2c2.9-0.1,5.7,0.5,8.3,1.8l1.8,1v-10.1l-0.6-0.3C2340.4,1182.8,2337,1182.1,2332.3,1182.2L2332.3,1182.2z"
		/>
	<text transform="matrix(1 0 0 1 1943 780.28)" class="st1 st2 st3 st4">START/PAUSE</text>
	<text transform="matrix(1 0 0 1 1943 780.28)" class="st5 st2 st3 st4">START/PAUSE</text>
	<g id="layer1">
		<g id="g107205">
			<path id="path17743" class="st1" d="M1919.1,554.2l-24.7,43h30.9v-10h-13.8l12.7-20.8l17.3,30.9h12.8l-24.9-43L1919.1,554.2"/>
			<path id="path17745" class="st1" d="M1982.2,597.3l13.2-22.9v22.9h10.7v-43h-10.6l-17.5,30.3l-17.5-30.3h-10.6v43h10.6v-22.9
				l13.2,22.9L1982.2,597.3"/>
			<path id="path17747" class="st1" d="M1895.8,571H1869v9.4h15.5v6.7h-27.6v-23.5h38.5v-9.4h-38.9c-8.4,0-11.1,2.7-11.1,10.8v21.5
				c0,8.1,2.7,10.8,11.1,10.8h28.2c8.5,0,11.2-2.7,11.2-10.8L1895.8,571"/>
			<path id="path17749" class="st1" d="M2099.9,554.2h-25.2c-8.4,0-11.1,2.7-11.1,10.8v21.5c0,8.1,2.7,10.8,11.1,10.8h25.2
				c8.4,0,11.2-2.7,11.2-10.8v-8.1h-11.6v8.7H2075v-23.5h24.4v7.4h11.6v-6C2111,557,2108.2,554.3,2099.9,554.2"/>
			<path id="path17751" class="st1" d="M2152.1,587.2h-25v-33h-11.5v32.3c0,8.1,2.7,10.8,11.1,10.8h25.8c8.5,0,11.2-2.7,11.2-10.8
				v-32.2h-11.6L2152.1,587.2"/>
			<path id="path17753" class="st1" d="M2210.6,575.1c2.6-1.2,4.3-3.8,4.3-6.7V563c0-6-3.3-8.7-10.2-8.7h-35.9v43h33.4
				c8.7,0,13.1-3.4,13.1-9.4v-5.4C2215.4,579.3,2213.5,576.3,2210.6,575.1z M2180.2,563h20.6c3.2,0,3.4,0.7,3.4,2v3.4
				c0,1.3-0.1,2-3.4,2h-20.6V563z M2204.4,585.2c0,2-0.4,2.7-3.6,2.7h-20.6v-8.8h20.6c3.2,0,3.6,0.7,3.6,2.7V585.2"/>
			<path id="path17755" class="st1" d="M2231.1,579.1h18.8v-8.7h-18.8V563h32.4v-8.7h-43.9v43h44.2v-10.1h-32.7V579.1"/>
			<path id="path17757" class="st1" d="M2022.6,579.1h18.8v-8.7h-18.8V563h32.3v-8.7h-43.8v43h44.2v-10.1h-32.7L2022.6,579.1"/>
			<path id="path17759" class="st1" d="M2144.5,542.1v-33h-6.3v21.5l-10.7-21.5h-8.4v32.9h6.3v-25.5l12.8,25.5H2144.5"/>
			<path id="path17763" class="st1" d="M1963,516.6l12.9,25.5h6.2v-33h-6.3v21.5l-10.6-21.5h-8.5v32.9h6.3V516.6"/>
			<path id="path17767" class="st1" d="M1860.4,516.6l12.9,25.5h6.2v-33h-6.2v21.5l-10.6-21.5h-8.5v32.9h6.2V516.6"/>
			<path id="path17771" class="st1" d="M1914.6,509.2h7.1v33h-7.1V509.2z"/>
			<path id="path17775" class="st1" d="M2020.8,542.1h6.7v-27.6h10.6v-5.4h-27.9v5.4h10.6V542.1"/>
			<path id="path17779" class="st1" d="M2190.4,542.1c5.8,0,10.4-3.4,10.4-8.1v-16.1c0-4.7-4.6-8.7-10.4-8.7h-15.2v33H2190.4z
				 M2181.4,514.6h8.8c2.2,0,4.4,1.3,4.4,3.4v15.5c0,2.7-2.3,4-4.4,4h-8.8V514.6"/>
			<path id="path17783" class="st1" d="M2255.8,517.9c0-4.7-4.7-8.7-10.4-8.7h-5.6c-5.7,0-10.4,4-10.4,8.7v16.1
				c0,4.7,4.7,8.8,10.4,8.8h5.6c5.7,0,10.4-4,10.4-8.8V517.9z M2249.6,534.1c0,2-2.3,3.4-4.4,3.4h-5.2c-2.2,0-4.4-1.3-4.4-3.4v-16.1
				c0-2,2.2-3.4,4.4-3.4h5.2c2.2,0,4.4,1.3,4.4,3.4L2249.6,534.1"/>
			<path id="path17787" class="st1" d="M2064,534.1c0,4.7,4.4,8.1,10,8.1h14.5v-4.7h-13.9c-2.1,0-4.4-2-4.4-4V528h18.2v-5.4h-18.2
				v-4.7c0-2,2.2-3.4,4.4-3.4h13.9v-5.4h-14.3c-5.6,0.7-10.2,4-10.2,8.7L2064,534.1"/>
		</g>
	</g>
	<path class="st1" d="M2368.6,961.5v-61h13.7c10,0,15.1,4.2,15.1,12.6v5.4c0,5.5-2.3,9.3-6.9,11.6c5.3,2.1,8,6.1,8,12v4.2
		c0.1,3.9-1.2,7.8-3.7,10.8c-2.5,2.9-6.5,4.4-12.1,4.4L2368.6,961.5z M2382.3,952.8c1.8,0.1,3.6-0.4,5.1-1.6c1.1-1.1,1.7-3.1,1.7-6
		V942c0-5.4-2.3-8-7.1-8h-4v18.7L2382.3,952.8z M2381.7,926.2c4.6,0,6.8-2.5,6.8-7.7V915c0-4.1-2.2-6.1-6.9-6.1h-3.7v17.4
		L2381.7,926.2z"/>
	<path class="st1" d="M2382.3,901.1c9.6,0,14.5,4,14.5,12v5.4c0,5.8-2.7,9.7-8,11.7c6.1,1.8,9.1,5.8,9.1,11.9v4.2
		c0.1,3.8-1.1,7.5-3.5,10.5c-2.4,2.8-6.3,4.2-11.6,4.2h-13.5v-59.8H2382.3 M2377.3,926.8h4.4c4.9,0,7.4-2.8,7.4-8.3V915
		c0-4.5-2.5-6.7-7.5-6.7h-4.3L2377.3,926.8 M2377.3,953.4h5c2,0.1,3.9-0.5,5.5-1.8c1.3-1.2,1.9-3.3,1.9-6.4v-3.1
		c0-5.8-2.6-8.6-7.7-8.6h-4.6V953.4 M2382.3,900H2368v62.1h14.7c5.8,0,10-1.5,12.6-4.6c2.6-3.2,4-7.1,3.8-11.2v-4.2
		c0-5.7-2.4-9.7-7.2-12c4.1-2.4,6.1-6.3,6.1-11.5v-5.4C2398,907.2,2395.2,900,2382.3,900L2382.3,900z M2378.5,909.5h3.1
		c4.3,0,6.3,1.7,6.3,5.5v3.5c0,4.8-2,7.1-6.2,7.1h-3.2L2378.5,909.5L2378.5,909.5z M2378.5,934.7h3.5c4.4,0,6.5,2.4,6.5,7.4v3.1
		c0,2.7-0.5,4.6-1.5,5.5c-1.3,1.1-3,1.6-4.6,1.5h-3.8L2378.5,934.7L2378.5,934.7z"/>
	<circle class="st0" cx="2381.6" cy="931" r="61"/>
	<path class="st1" d="M2591.3,857.1l-2.9-11.7h-12.7l-2.7,11.7h-9.4l14.3-61h8.5l14.3,61H2591.3z M2586.8,837.4l-4.6-22.4l-4.7,22.4
		L2586.8,837.4z"/>
	<path class="st1" d="M2585.9,796.7l14,59.8h-8.1l-2.9-11.7h-13.6l-2.7,11.7h-8.2l14-59.8H2585.9 M2576.7,838h10.8l-5.4-25.9
		L2576.7,838 M2586.8,795.5h-9.4l-0.2,0.9l-14,59.8l-0.4,1.5h10.7l0.2-0.9l2.5-10.8h11.8l2.7,10.8l0.2,0.9h10.6l-0.4-1.5l-14-59.8
		L2586.8,795.5L2586.8,795.5z M2578.1,836.8l4-18.8l3.9,18.8H2578.1z"/>
	<circle class="st0" cx="2582.1" cy="833.1" r="100.9"/>
	<polygon class="st1" points="2520.8,673.4 2520.8,647.5 2509.4,612.5 2518.9,612.5 2525.5,635.4 2532.3,612.5 2542,612.5 
		2530.3,647.5 2530.3,673.4 	"/>
	<path class="st1" d="M2541.1,613.1l-11.5,34.4v25.4h-8.3v-25.4l-11.2-34.4h8.3l7,24.5l7.3-24.5H2541.1 M2542.8,611.9h-10.9
		l-0.3,0.9l-6.1,20.5l-5.9-20.5l-0.2-0.9h-10.8l0.5,1.6l11.1,34.2V674h10.7v-26.4l11.4-34.2L2542.8,611.9L2542.8,611.9z"/>
	<path class="st0" d="M2621.1,637.3c-0.4-84.8-188.1-40.6-186.9,24.7c-0.5,31.4,34.8,53.4,63,38.5c25-13.7,53.2-20.2,81.7-18.7
		C2602.5,680.6,2621.1,661,2621.1,637.3z"/>
	<polygon class="st1" points="2778.9,818.7 2772.7,799.3 2766.5,818.7 2756.6,818.7 2767.8,787.7 2757.3,757.8 2766.6,757.8 
		2772.7,776.1 2778.8,757.8 2788.2,757.8 2777.4,787.7 2788.6,818.7 	"/>
	<path class="st1" d="M2787.3,758.3l-10.6,29.4l11,30.4h-8.5l-6.6-20.7l-6.7,20.7h-8.6l11-30.4l-10.4-29.4h8.1l6.5,19.7l6.6-19.7
		H2787.3 M2789,757.1h-10.7l-0.3,0.8l-5.4,16.2l-5.3-16.2l-0.3-0.8h-10.7l0.6,1.6l10.2,29l-10.9,30l-0.6,1.6h11.1l0.3-0.8l5.5-17.2
		l5.5,17.2l0.3,0.8h11.1l-0.6-1.6l-10.9-30l10.4-29L2789,757.1L2789,757.1z"/>
	<path class="st0" d="M2785.9,882.2c84.8-3.5,33.9-189.4-31.3-185.9c-31.4,0.6-52.1,36.6-36.3,64.3c14.6,24.5,22.1,52.5,21.6,81
		C2741.9,865.2,2762.2,883.1,2785.9,882.2z"/>
	<circle class="st0" cx="2048" cy="850.6" r="42"/>
	<circle class="st0" cx="1514.2" cy="829.3" r="73.3"/>
	<circle class="st0" cx="1514.2" cy="829.3" r="51.8"/>
	<circle class="st0" cx="1514.2" cy="829.3" r="24.9"/>
	<path class="st1" d="M3197.6,1242.2v-61h13.7c10,0,15.1,4.2,15.1,12.6v5.4c0,5.5-2.3,9.3-6.9,11.6c5.3,2.1,8,6.1,8,12v4.2
		c0.1,3.9-1.2,7.8-3.7,10.8c-2.5,2.9-6.5,4.4-12.1,4.4L3197.6,1242.2z M3211.3,1233.4c1.8,0.1,3.6-0.5,5-1.6c1.1-1.1,1.7-3.1,1.7-6
		v-3.1c0-5.4-2.3-8-7.1-8h-4v18.7L3211.3,1233.4z M3210.6,1206.9c4.6,0,6.8-2.5,6.8-7.7v-3.6c0-4.1-2.2-6.1-6.9-6.1h-3.7v17.4
		L3210.6,1206.9z"/>
	<path class="st1" d="M3211.3,1181.8c9.6,0,14.5,4,14.5,12v5.4c0,5.8-2.7,9.6-8,11.6c6.1,1.8,9.1,5.8,9.1,11.9v4.2
		c0.1,3.8-1.1,7.5-3.6,10.5c-2.4,2.8-6.2,4.2-11.6,4.2h-13.5v-59.8L3211.3,1181.8 M3206.3,1207.5h4.4c4.9,0,7.4-2.8,7.4-8.3v-3.6
		c0-4.5-2.5-6.7-7.5-6.7h-4.3L3206.3,1207.5 M3206.3,1234h5c2,0.1,3.9-0.5,5.5-1.8c1.3-1.2,1.9-3.3,1.9-6.4v-3.1
		c0-5.8-2.6-8.6-7.7-8.7h-4.6V1234 M3211.3,1180.6H3197v62.2h14.7c5.7,0,10-1.6,12.6-4.6c2.6-3.2,4-7.2,3.8-11.2v-4.2
		c0-5.7-2.4-9.7-7.2-12c4.1-2.4,6.2-6.3,6.2-11.5v-5.4C3227,1187.8,3224.2,1180.6,3211.3,1180.6L3211.3,1180.6z M3207.5,1190.1h3.1
		c4.3,0,6.3,1.7,6.3,5.5v3.6c0,4.8-2,7.1-6.2,7.1h-3.2L3207.5,1190.1L3207.5,1190.1z M3207.5,1215.3h3.4c4.5,0,6.5,2.4,6.5,7.4v3.1
		c0,2.7-0.5,4.6-1.5,5.5c-1.3,1.1-3,1.6-4.6,1.5h-3.8V1215.3L3207.5,1215.3z"/>
	<circle class="st0" cx="3210.6" cy="1211.7" r="61"/>
	<polygon class="st1" points="3203.8,778.3 3203.8,752.8 3192.6,718.4 3202,718.4 3208.5,740.9 3215.1,718.4 3224.6,718.4 
		3213.1,752.8 3213.1,778.3 	"/>
	<path class="st1" d="M3223.8,719l-11.2,33.8v24.9h-8.1v-24.9l-11-33.8h8.1l6.9,24l7.1-24H3223.8 M3225.5,717.8h-10.8l-0.2,0.9
		l-6,20.1l-5.8-20.1l-0.2-0.9h-10.7l0.5,1.6l10.9,33.6v25.9h10.5V753l11.2-33.6L3225.5,717.8L3225.5,717.8z"/>
	<path class="st0" d="M3208.6,699.8c-48-0.8-96.1,16.6-95.1,54.7c-0.7,25.3,22.7,47.4,48.6,44c1.3-0.1,2.7-0.3,4-0.5
		c13.4-3.9,27.3-5.9,41.3-6h1.1h1.1c14,0.1,27.9,2.1,41.3,6c1.4,0.2,2.7,0.4,4,0.5c25.9,3.4,49.3-18.7,48.6-44
		C3304.8,716.5,3256.6,699,3208.6,699.8z"/>
	<polygon class="st1" points="3215.6,903 3209.7,884.4 3203.7,903 3194.2,903 3205,873.2 3194.9,844.4 3203.9,844.4 3209.7,862 
		3215.5,844.4 3224.6,844.4 3214.2,873.2 3225,903 	"/>
	<path class="st1" d="M3223.7,845l-10.1,28.2l10.6,29.2h-8.2l-6.4-19.9l-6.4,19.9h-8.2l10.6-29.2l-10-28.2h7.8l6.2,18.9l6.4-18.9
		H3223.7 M3225.5,843.8h-10.4l-0.3,0.8l-5.1,15.4l-5.1-15.4l-0.3-0.8H3194l0.6,1.6l9.8,27.8L3194,902l-0.6,1.6h10.8l0.3-0.8
		l5.2-16.3l5.2,16.3l0.3,0.8h10.7l-0.6-1.6l-10.4-28.8l10-27.8L3225.5,843.8L3225.5,843.8z"/>
	<path class="st0" d="M3210.6,825.4c-48-0.8-96.1,16.6-95.1,54.6c-0.7,25.3,22.7,47.4,48.6,44c1.3-0.1,2.7-0.3,4-0.5
		c13.4-3.9,27.3-5.9,41.3-6h2.2c14,0.1,27.9,2.1,41.3,6c1.4,0.2,2.7,0.4,4,0.5c25.9,3.4,49.3-18.7,48.6-44
		C3306.7,842,3258.6,824.6,3210.6,825.4z"/>
	<path class="st1" d="M3218.1,1054.9l-2.3-9.3h-9.9l-2.2,9.3h-7.7l11.4-48.7h6.9l11.4,48.7H3218.1z M3214.4,1039l-3.5-17.1
		l-3.6,17.1H3214.4z"/>
	<path class="st1" d="M3213.9,1006.8l11.1,47.5h-6.4l-2.3-9.3h-10.9l-2.2,9.3h-6.5l11.1-47.5L3213.9,1006.8 M3206.6,1039.6h8.6
		l-4.3-20.6L3206.6,1039.6 M3214.8,1005.6h-7.9l-0.2,0.9l-11.1,47.5l-0.3,1.5h9l0.2-0.9l2-8.4h9l2.1,8.4l0.2,0.9h8.9l-0.3-1.5
		l-11.1-47.5l-0.2-0.9H3214.8z M3208,1038.5l2.9-13.5l2.8,13.5H3208z"/>
	<circle class="st0" cx="3210.9" cy="1035.7" r="80.3"/>
	<path class="st0" d="M3198.2,266.2c-59.2,0-93.8,91.8-59.1,91.8h118.2C3291.4,358,3258.3,266.2,3198.2,266.2L3198.2,266.2z"/>
	<path class="st1" d="M3207.5,345l-12.8-27v27h-9.3v-61h12.2c5.5,0,9.6,1.3,12.4,3.8s4.2,6.8,4.2,12.7c0,4.4-1,8-2.9,10.5
		c-1.9,2.5-4.8,4.1-7.9,4.4l14.2,29.5H3207.5z M3197.1,310.1c2.6,0,4.6-0.7,5.9-2s1.9-3.9,1.9-7.7c0-2.9-0.6-5-1.7-6.2
		s-3-1.9-5.6-1.9h-2.9V310L3197.1,310.1z"/>
	<path class="st1" d="M3197.6,284.6c5.3,0,9.3,1.2,12,3.7c2.7,2.5,4,6.5,4,12.2c0,4.3-0.9,7.7-2.8,10.2c-1.9,2.5-4.7,3.9-8.4,4.3
		l14.1,29.4h-8.6l-13.8-29v29h-8.1v-59.8H3197.6 M3194.1,310.6h3c2.8,0,4.9-0.7,6.3-2.1s2.1-4.1,2.1-8.1c0-3-0.6-5.2-1.8-6.6
		s-3.2-2.1-6.1-2.1h-3.4V310.6 M3197.6,283.4h-12.8v62.2h10.5v-24.9l11.5,24.2l0.3,0.7h11.3l-0.8-1.7l-13.4-27.9
		c3-0.5,5.7-2.1,7.5-4.5c2-2.7,3.1-6.4,3.1-10.9c0-6-1.5-10.4-4.4-13.1S3203.2,283.5,3197.6,283.4L3197.6,283.4z M3195.3,292.8h2.2
		c2.5,0,4.2,0.6,5.2,1.7s1.5,3.1,1.5,5.9c0,4.5-1,6.5-1.8,7.3c-1.2,1.2-3,1.8-5.4,1.8h-1.8V292.8L3195.3,292.8z"/>
	<path class="st0" d="M896.5,324c-59.2,0-93.8,91.8-59.1,91.8h118.2C989.7,415.8,956.6,324,896.5,324z"/>
	<polygon class="st1" points="886.3,402.8 886.3,341.8 895.6,341.8 895.6,394.1 912.8,394.1 912.8,402.8 	"/>
	<path class="st1" d="M895,342.4v52.3h17.2v7.5h-25.3v-59.8H895 M896.2,341.2h-10.5v62.2h27.7v-9.9h-17.2L896.2,341.2L896.2,341.2z"
		/>
	<path class="st0" d="M3243.6,382.4h-92.5c-22.9,0-41.4,18.5-41.4,41.4c0,22.9,18.5,41.4,41.4,41.4c0,0,0,0,0,0h92.5
		c22.9,0,41.4-18.5,41.4-41.4C3285,401,3266.5,382.4,3243.6,382.4z"/>
	<polygon class="st1" points="3182.2,454.3 3201.5,401.6 3185.2,401.6 3185.2,393.3 3214.1,393.3 3194.9,445.6 3212.2,445.6 
		3212.2,454.3 	"/>
	<path class="st1" d="M3213.3,393.9l-19.2,52.3h17.6v7.5h-28.6l19.3-52.7h-16.6v-7.1L3213.3,393.9 M3215,392.7h-30.4v9.5h16
		l-18.7,51.1l-0.6,1.6h31.5V445h-17l18.6-50.7L3215,392.7L3215,392.7z"/>
	<polyline class="st0" points="1670.8,1298 1464.1,1504.8 926,1504.8 	"/>
	<path class="st6" d="M787,1757.8h28.3c1.9,0,3.5,1.5,3.5,3.5v28.3c0,4.2,3.4,7.6,7.6,7.6l0,0h24.2c4.2,0,7.6-3.4,7.6-7.6
		c0,0,0,0,0,0v-28.3c0-1.9,1.5-3.5,3.5-3.5h28.4c4.2,0,7.6-3.4,7.6-7.6V1726c0-4.2-3.4-7.6-7.6-7.6l0,0h-28.3
		c-1.9,0-3.5-1.5-3.5-3.5v-28.4c0-4.2-3.4-7.6-7.6-7.6l0,0h-24.2c-4.2,0-7.6,3.4-7.6,7.6v28.4c0,1.9-1.5,3.5-3.5,3.5H787
		c-4.2,0-7.6,3.4-7.6,7.6c0,0,0,0,0,0v24.2C779.4,1754.4,782.8,1757.8,787,1757.8z"/>
	<path class="st7" d="M882.7,1737.8l-10.7-4.7c-0.3-0.2-0.6-0.1-0.8,0.2c-0.1,0.1-0.1,0.2-0.1,0.3v9.4c0,0.3,0.3,0.6,0.6,0.6
		c0.1,0,0.2,0,0.3-0.1l10.7-4.7c0.3-0.2,0.3-0.6,0.1-0.8C882.8,1737.9,882.7,1737.8,882.7,1737.8z"/>
	<path class="st1" d="M815.4,1718.6H787c-4.2,0-7.6,3.4-7.6,7.6v24.2c0,4.2,3.4,7.6,7.6,7.6h28.3c1.9,0,8.5,1.6,8.5,3.5v-46.4
		C823.8,1717,817.3,1718.6,815.4,1718.6z M806.1,1738.3v4.7c0,0.3-0.3,0.6-0.6,0.6c-0.1,0-0.2,0-0.3-0.1l-10.7-4.7
		c-0.3-0.2-0.4-0.5-0.2-0.8c0.1-0.1,0.1-0.2,0.2-0.2l10.7-4.7c0.3-0.2,0.6-0.1,0.8,0.2c0.1,0.1,0.1,0.2,0.1,0.3V1738.3z"/>
	<path class="st7" d="M838.1,1693.5l-4.7,10.7c-0.2,0.3-0.1,0.6,0.2,0.8c0.1,0.1,0.2,0.1,0.3,0.1h9.5c0.3,0,0.6-0.3,0.6-0.6
		c0-0.1,0-0.2-0.1-0.3l-4.7-10.7c-0.2-0.3-0.5-0.4-0.8-0.2C838.2,1693.3,838.1,1693.4,838.1,1693.5z"/>
	<path class="st7" d="M839.1,1782.7l4.7-10.7c0.2-0.3,0.1-0.6-0.2-0.8c-0.1-0.1-0.2-0.1-0.3-0.1h-9.5c-0.3,0-0.6,0.3-0.6,0.6
		c0,0.1,0,0.2,0.1,0.3l4.7,10.7c0.2,0.3,0.5,0.3,0.8,0.2C839,1782.8,839,1782.8,839.1,1782.7z"/>
	<path class="st6" d="M818.8,1232.8v30.3c0,1.9-1.5,3.5-3.5,3.5H785c-4.2,0-7.6,3.4-7.6,7.6v24.2c0,4.2,3.4,7.6,7.6,7.6l0,0h30.3
		c1.9,0,3.5,1.5,3.5,3.4c0,0,0,0,0,0v30.4c0,4.2,3.4,7.6,7.6,7.6h24.2c4.2,0,7.6-3.4,7.6-7.6l0,0v-30.4c0-1.9,1.5-3.4,3.5-3.4
		c0,0,0,0,0,0h30.4c4.2,0,7.6-3.4,7.6-7.6v-24.2c0-4.2-3.4-7.6-7.6-7.6h-30.3c-1.9,0-3.5-1.5-3.5-3.5v-30.3c0-4.2-3.4-7.6-7.6-7.6
		c0,0,0,0,0,0h-24.2C822.2,1225.1,818.8,1228.6,818.8,1232.8L818.8,1232.8z"/>
	<path class="st7" d="M838.9,1330.4l4.7-10.7c0.2-0.3,0.1-0.6-0.2-0.8c-0.1-0.1-0.2-0.1-0.3-0.1h-9.5c-0.3,0-0.6,0.3-0.6,0.6
		c0,0.1,0,0.2,0.1,0.3l4.7,10.7c0.2,0.3,0.5,0.4,0.8,0.2C838.7,1330.6,838.8,1330.5,838.9,1330.4z"/>
	<path class="st1" d="M858.1,1263.1v-30.3c0-4.2-3.4-7.6-7.6-7.6l0,0h-24.2c-4.2,0-7.6,3.4-7.6,7.6c0,0,0,0,0,0v30.3
		c0,1.9-1.5,8.5-3.5,8.5h46.4C859.7,1271.6,858.1,1265,858.1,1263.1z M843.1,1253.8h-9.5c-0.3,0-0.6-0.3-0.6-0.6
		c0-0.1,0-0.2,0.1-0.3l4.7-10.7c0.2-0.3,0.5-0.4,0.8-0.2c0.1,0.1,0.2,0.1,0.2,0.2l4.7,10.7c0.2,0.3,0.1,0.6-0.2,0.8
		C843.3,1253.8,843.2,1253.8,843.1,1253.8L843.1,1253.8z"/>
	<path class="st7" d="M883.2,1285.8l-10.7-4.7c-0.3-0.2-0.6-0.1-0.8,0.2c-0.1,0.1-0.1,0.2-0.1,0.3v9.5c0,0.3,0.3,0.6,0.6,0.6
		c0.1,0,0.2,0,0.3-0.1l10.7-4.8c0.3-0.2,0.4-0.5,0.2-0.8C883.3,1285.9,883.2,1285.9,883.2,1285.8z"/>
	<path class="st7" d="M794,1286.8l10.7,4.8c0.3,0.2,0.6,0.1,0.8-0.2c0.1-0.1,0.1-0.2,0.1-0.3v-9.5c0-0.3-0.3-0.6-0.6-0.6
		c-0.1,0-0.2,0-0.3,0.1l-10.7,4.7c-0.3,0.2-0.4,0.5-0.2,0.8C793.9,1286.7,793.9,1286.8,794,1286.8z"/>
	<path class="st6" d="M892.5,1417.2h-30.4c-1.9,0-3.5-1.5-3.5-3.5v-30.3c0-4.2-3.4-7.6-7.6-7.6l0,0h-24.2c-4.2,0-7.6,3.4-7.6,7.6
		c0,0,0,0,0,0v30.3c0,1.9-1.5,3.5-3.5,3.5h-30.4c-4.2,0-7.6,3.4-7.6,7.6v24.2c0,4.2,3.4,7.6,7.6,7.6h30.4c1.9,0,3.5,1.5,3.5,3.4
		c0,0,0,0,0,0v30.4c0,4.2,3.4,7.6,7.6,7.6c0,0,0,0,0,0h24.2c4.2,0,7.6-3.4,7.6-7.6l0,0v-30.3c0-1.9,1.5-3.4,3.5-3.4c0,0,0,0,0,0
		h30.3c4.2,0,7.6-3.4,7.6-7.6l0,0v-24.2C900.2,1420.6,896.7,1417.2,892.5,1417.2L892.5,1417.2z"/>
	<path class="st7" d="M794.8,1437.2l10.7,4.7c0.3,0.2,0.6,0.1,0.8-0.2c0.1-0.1,0.1-0.2,0.1-0.3v-9.4c0-0.3-0.3-0.6-0.6-0.6
		c-0.1,0-0.2,0-0.3,0.1l-10.7,4.7c-0.3,0.2-0.3,0.5-0.1,0.8C794.7,1437.1,794.8,1437.2,794.8,1437.2z"/>
	<path class="st1" d="M892.5,1417h-30.4c-1.9,0-8.5-1.6-8.5-3.5v46.4c0-1.9,6.5-3.5,8.5-3.5h30.3c4.2,0,7.6-3.4,7.6-7.6c0,0,0,0,0,0
		v-24.2C900.1,1420.4,896.7,1417,892.5,1417z M883.1,1437.2l-10.7,4.7c-0.3,0.2-0.6,0.1-0.8-0.2c-0.1-0.1-0.1-0.2-0.1-0.3v-9.5
		c0-0.3,0.3-0.6,0.6-0.6c0.1,0,0.2,0,0.3,0.1l10.7,4.7C883.3,1436.5,883.2,1436.9,883.1,1437.2L883.1,1437.2z"/>
	<path class="st7" d="M839.5,1481.5l4.7-10.7c0.2-0.3,0.1-0.6-0.2-0.8c-0.1-0.1-0.2-0.1-0.3-0.1h-9.5c-0.3,0-0.6,0.3-0.6,0.6
		c0,0.1,0,0.2,0.1,0.3l4.7,10.7c0.2,0.3,0.5,0.4,0.8,0.2C839.4,1481.7,839.4,1481.6,839.5,1481.5z"/>
	<path class="st7" d="M838.5,1392.3l-4.7,9.7c-0.2,0.3-0.1,0.6,0.2,0.8c0.1,0.1,0.2,0.1,0.3,0.1h9.5c0.3,0,0.6-0.3,0.6-0.6
		c0-0.1,0-0.2-0.1-0.3l-4.7-9.7c-0.2-0.3-0.5-0.4-0.8-0.2C838.6,1392.2,838.5,1392.2,838.5,1392.3z"/>
	<path class="st6" d="M859,1641.1v-30.4c0-1.9,1.5-3.5,3.5-3.5h30.3c4.2,0,7.6-3.4,7.6-7.6c0,0,0,0,0,0v-24.2c0-4.2-3.4-7.6-7.6-7.6
		c0,0,0,0,0,0h-30.3c-1.9,0-3.5-1.5-3.5-3.4c0,0,0,0,0,0V1534c0-4.2-3.4-7.6-7.6-7.6h-24.2c-4.2,0-7.6,3.4-7.6,7.6v30.4
		c0,1.9-1.5,3.4-3.4,3.4c0,0,0,0,0,0h-30.4c-4.2,0-7.6,3.4-7.6,7.6v24.2c0,4.2,3.4,7.6,7.6,7.6h30.4c1.9,0,3.5,1.5,3.5,3.4
		c0,0,0,0,0,0v30.3c0,4.2,3.4,7.6,7.6,7.6c0,0,0,0,0,0h24.2C855.6,1648.7,859,1645.3,859,1641.1C859,1641.1,859,1641.1,859,1641.1z"
		/>
	<path class="st7" d="M839,1543.4l-4.7,10.7c-0.2,0.3-0.1,0.6,0.2,0.8c0.1,0.1,0.2,0.1,0.3,0.1h9.5c0.3,0,0.6-0.3,0.6-0.6
		c0-0.1,0-0.2-0.1-0.3l-4.7-10.7c-0.2-0.3-0.5-0.4-0.8-0.2C839.1,1543.2,839.1,1543.3,839,1543.4z"/>
	<path class="st1" d="M816.3,1602.2c1.9,0,3.5,6.6,3.5,8.5v30.3c0,4.2,3.4,7.6,7.6,7.6c0,0,0,0,0,0h24.2c4.2,0,7.6-3.4,7.6-7.6l0,0
		v-30.3c0-1.9,1.6-8.5,3.5-8.5H816.3z M844.7,1620.9l-4.7,10.7c-0.2,0.3-0.5,0.4-0.8,0.2c-0.1-0.1-0.2-0.1-0.2-0.2l-4.7-10.7
		c-0.2-0.3-0.1-0.6,0.2-0.8c0.1-0.1,0.2-0.1,0.3-0.1h9.5c0.3,0,0.6,0.3,0.6,0.6C844.8,1620.7,844.8,1620.8,844.7,1620.9z"/>
	<path class="st7" d="M794.7,1588l10.7,4.7c0.3,0.2,0.6,0.1,0.8-0.2c0.1-0.1,0.1-0.2,0.1-0.3v-9.5c0-0.3-0.3-0.6-0.6-0.6
		c-0.1,0-0.2,0-0.3,0.1l-10.7,4.7c-0.3,0.2-0.4,0.5-0.2,0.8C794.5,1587.9,794.6,1587.9,794.7,1588z"/>
	<path class="st7" d="M883.9,1587l-10.7-4.8c-0.3-0.2-0.6-0.1-0.8,0.2c-0.1,0.1-0.1,0.2-0.1,0.3v9.5c0,0.3,0.3,0.6,0.6,0.6
		c0.1,0,0.2,0,0.3-0.1l10.7-4.7c0.3-0.2,0.4-0.5,0.2-0.8C884,1587.1,884,1587,883.9,1587z"/>
	<polyline class="st0" points="2468.7,1342.7 2745.1,1619.1 3145.4,1619.1 	"/>
	<polyline class="st0" points="1468.5,915 1376.6,1006.9 1006.5,1006.9 	"/>
</g>
<g id="Layer_3">
	<path class="st0" d="M1882.9,1036.8c-61.2-54.7-59.1-118.2-51.6-193.4c0-167.1-135.5-302.6-302.7-302.6
		c-317.4-1.5-420,438.3-132.4,575.7c71.1,25.9,129.3,52,151.8,130.8c15.5,105.6,106.2,183.8,213,183.5
		C1971.1,1432.6,2057.1,1151.5,1882.9,1036.8z"/>
	<path class="st0" d="M2213.1,1043.1c61.2-54.7,59.1-118.2,51.6-193.4c0-167.1,135.5-302.6,302.6-302.6
		c317.4-1.5,420,438.3,132.4,575.7c-71.1,25.9-129.4,52-151.8,130.8c-15.5,105.6-106.2,183.8-213,183.5
		C2124.9,1439,2038.9,1157.9,2213.1,1043.1z"/>
	<path class="st0" d="M1449.9,550.1c25.8-6.5,52.2-9.6,78.8-9.4c167.1,0,302.7,135.5,302.7,302.6c-4.8,48.2-7.4,91.5,7.4,130.7
		c62.1-18.9,133.4-29.7,209.3-29.7c76.6,0,148.7,11,211.3,30.3c12.5-37.8,9.9-79.2,5.4-125c0-167.2,135.5-302.7,302.6-302.7
		c37.9-0.2,72.8,5.9,104.2,17.1c-150-86.8-373.7-141.9-623.6-141.9C1811.9,422.2,1599.2,471.4,1449.9,550.1z"/>
	<path class="st0" d="M2259.3,974.1c-122.8-39.3-297.8-39.3-420.6,0c0.1,0.2,0.2,0.4,0.2,0.6l-0.2,0.1c2,6,4.4,11.9,7.1,17.7
		c0.4,0,2.1,1.6,2.6,2.5c40.9-9.1,130.9,1.3,174.3,9.8c17.4,3.4,35.7,4.1,52.9,0c41.4-9.8,131.6-19,174-9.9c0.9,0.2,2.2-2.5,2.6-2.5
		c2.7-5.7,5.1-11.6,7.1-17.7l-0.2-0.1L2259.3,974.1z"/>
	<path class="st0" d="M1488,543l1.7-0.2L1488,543z"/>
	<path class="st0" d="M1494.7,542.3l1.9-0.2L1494.7,542.3z"/>
	<path class="st0" d="M1502.3,541.6L1502.3,541.6l-0.8,0.1L1502.3,541.6z"/>
	<path class="st0" d="M1449.9,550.1L1449.9,550.1c36.7-19.2,74.7-35.8,113.7-49.8c-94-24.2-148.8,33.6-174,72.5
		C1408.8,563,1429,555.3,1449.9,550.1z"/>
	<path class="st0" d="M1474.9,544.9l1.1-0.2L1474.9,544.9z"/>
	<path class="st0" d="M1462.2,547.2l0.6-0.1L1462.2,547.2z"/>
	<path class="st0" d="M1456,548.6l0.3-0.1L1456,548.6z"/>
	<path class="st0" d="M1481.4,543.9l1.4-0.2L1481.4,543.9z"/>
	<path class="st0" d="M1468.5,546l0.9-0.2L1468.5,546z"/>
	<path class="st0" d="M2551.8,547.4c-5.1,0.3-10.2,0.6-15.2,1.2C2541.6,548.1,2546.7,547.7,2551.8,547.4z"/>
	<path class="st0" d="M2559.5,547.2c-2.3,0.1-4.6,0.1-6.9,0.3C2554.9,547.3,2557.2,547.2,2559.5,547.2z"/>
	<path class="st0" d="M2760.5,586.1c-20.5-24.1-58.7-44.3-58.7-44.3c-99.3-59.7-172.1-58-203.1-53.1c64.6,21,122.8,46.4,172.8,75.4
		c30.5,10.8,58.9,26.7,84,47.2l4.9-1.5C2771.8,603.6,2760.5,586.1,2760.5,586.1z"/>
	<path class="st0" d="M1524.3,1196.2c-29.2-41.2-75-60.6-128-79.8c-112.3-53.7-165.2-153.5-168.9-255.1
		c-31.3,148.8-59.5,383.3-38.4,709.7c0,0,18,161.3,100.7,183.3c36.7,9.8,65.6-3.1,86.3-20.4c23.1-19.5,38.5-46.5,43.6-76.2
		C1436.2,1562.6,1495.1,1237.4,1524.3,1196.2z"/>
	<path class="st0" d="M1725.8,1106.7v70.5c0,0.4-0.3,0.8-0.8,0.8l0,0h-70.5c-4.6,0-8.3,3.7-8.3,8.3v55.1c0,4.6,3.7,8.3,8.3,8.3h70.5
		c0.4,0,0.8,0.3,0.8,0.8l0,0v70.5c0,4.6,3.7,8.3,8.3,8.3h55.1c4.6,0,8.3-3.7,8.3-8.3v-70.5c0-0.4,0.3-0.8,0.7-0.8c0,0,0,0,0,0h70.5
		c4.6,0,8.3-3.7,8.3-8.3v-55.1c0-4.6-3.7-8.3-8.3-8.3h-70.5c-0.4,0-0.8-0.3-0.8-0.7c0,0,0,0,0,0v-70.5c0-4.6-3.7-8.3-8.3-8.3h-55.1
		C1729.5,1098.4,1725.8,1102.1,1725.8,1106.7z"/>
	<path class="st1" d="M1760.1,1119.2l-14.6,32.8c-0.7,1.6,0.1,3.8,1.5,3.8h29.3c1.4,0,2.3-2.1,1.5-3.8l-14.6-32.8
		c-0.2-0.8-1.1-1.3-1.9-1.1C1760.7,1118.2,1760.3,1118.6,1760.1,1119.2z"/>
	<path class="st1" d="M1763.2,1305.1l14.6-32.8c0.7-1.6-0.1-3.8-1.5-3.8H1747c-1.4,0-2.3,2.1-1.5,3.8l14.6,32.8
		c0.2,0.9,1.1,1.4,1.9,1.2C1762.6,1306.1,1763.1,1305.6,1763.2,1305.1z"/>
	<circle class="st1" cx="1761.7" cy="1213.9" r="18.4"/>
	<path class="st1" d="M1668.7,1215.4l32.8,14.6c1.7,0.7,3.8-0.1,3.8-1.5v-29.3c0-1.4-2.1-2.3-3.8-1.5l-32.8,14.6
		c-0.8,0.2-1.4,1.1-1.1,1.9C1667.7,1214.9,1668.2,1215.3,1668.7,1215.4z"/>
	<path class="st1" d="M1854.6,1212.4l-32.8-14.6c-1.6-0.7-3.8,0.1-3.8,1.5v29.3c0,1.4,2.1,2.3,3.8,1.5l32.8-14.6
		c0.8-0.2,1.4-1.1,1.1-1.9C1855.6,1213,1855.2,1212.5,1854.6,1212.4z"/>
	<path class="st0" d="M2873.9,861.3c-1.5-7.7-3.4-15.4-5.6-22.9c6.1,111.3-45.5,225.5-168.6,284.3c-49.5,18-92.8,36.2-122.1,72.1
		c-0.1,0.5-0.3,1-0.6,1.4c29.2,41.2,88.1,366.4,104.8,461.5c5.1,29.8,20.5,56.8,43.6,76.2c20.7,17.3,49.5,30.2,86.3,20.4
		c82.7-22,100.7-183.3,100.7-183.3C2933.4,1244.5,2905.3,1010.1,2873.9,861.3z"/>
</g>
</svg>
