<svg id="Layer_1" data-name="Layer 1" xmlns="http://www.w3.org/2000/svg" xmlns:xlink="http://www.w3.org/1999/xlink" viewBox="0 0 512 512"><defs><style>.cls-1{fill:none;stroke-linecap:round;stroke-width:35px;}.cls-1,.cls-2{stroke:#000;stroke-miterlimit:10;}.cls-2{stroke-width:20px;fill:url(#radial-gradient);}.cls-3{opacity:0.2;}</style><radialGradient id="radial-gradient" cx="256" cy="256" r="169.31" gradientUnits="userSpaceOnUse"><stop offset="0.84" stop-color="#d5d2dd"/><stop offset="1" stop-color="#96949c"/></radialGradient></defs><path d="M111.41,377.53,45.24,342.18c-4.44-2.38-10.61,1.71-10.18,6.74l6.41,76c.37,4.36,5.56,6.18,9.66,3.39l59.75-40.67C114.91,384.92,115.19,379.55,111.41,377.53Z"/><path class="cls-1" d="M66.32,392l36.5,36.5a230.25,230.25,0,1,0,305-345A228.72,228.72,0,0,0,241.16,26.18m-90,24.36"/><circle class="cls-2" cx="256" cy="256" r="169.31"/><g class="cls-3"><path d="M256,134a122,122,0,1,1-86.27,35.73A121.22,121.22,0,0,1,256,134m0-13A135,135,0,1,0,391,256,135,135,0,0,0,256,121Z"/></g><g class="cls-3"><path d="M256,173.54A82.46,82.46,0,1,1,173.54,256,82.55,82.55,0,0,1,256,173.54m0-13A95.46,95.46,0,1,0,351.46,256,95.46,95.46,0,0,0,256,160.54Z"/></g><g class="cls-3"><path d="M256,223.06A32.94,32.94,0,1,1,223.06,256,33,33,0,0,1,256,223.06m0-13A45.94,45.94,0,1,0,301.94,256,45.94,45.94,0,0,0,256,210.06Z"/></g></svg>