<svg id="Layer_1" data-name="Layer 1" xmlns="http://www.w3.org/2000/svg" xmlns:xlink="http://www.w3.org/1999/xlink" viewBox="0 0 512 512"><defs><style>.cls-1{stroke:#000;stroke-miterlimit:10;stroke-width:20px;fill:url(#radial-gradient);}.cls-2{opacity:0.2;}</style><radialGradient id="radial-gradient" cx="256" cy="256" r="169.31" gradientUnits="userSpaceOnUse"><stop offset="0.84" stop-color="#d5d2dd"/><stop offset="1" stop-color="#96949c"/></radialGradient></defs><path d="M363.11,88.83l7.43-9.94L256,10.36,140.46,78.89l8.36,9.94C178,67.55,215.3,54.77,256,54.77S333.94,67.55,363.11,88.83Z"/><circle class="cls-1" cx="256" cy="256" r="169.31"/><g class="cls-2"><path d="M256,134a122,122,0,1,1-86.27,35.73A121.22,121.22,0,0,1,256,134m0-13A135,135,0,1,0,391,256,135,135,0,0,0,256,121Z"/></g><g class="cls-2"><path d="M256,173.54A82.46,82.46,0,1,1,173.54,256,82.55,82.55,0,0,1,256,173.54m0-13A95.46,95.46,0,1,0,351.46,256,95.46,95.46,0,0,0,256,160.54Z"/></g><g class="cls-2"><path d="M256,223.06A32.94,32.94,0,1,1,223.06,256,33,33,0,0,1,256,223.06m0-13A45.94,45.94,0,1,0,301.94,256,45.94,45.94,0,0,0,256,210.06Z"/></g></svg>