<svg id="Layer_1" data-name="Layer 1" xmlns="http://www.w3.org/2000/svg" viewBox="0 0 512 512"><defs><style>.cls-1{fill:none;stroke:#fff;stroke-miterlimit:10;stroke-width:24px;}.cls-2{fill:#fff;}.cls-3{fill:#dce0df;}</style></defs><circle class="cls-1" cx="256" cy="256" r="166.22"/><path class="cls-2" d="M221.52,338V174H257.8c26.54,0,40,11.21,40,33.31v14.62c0,15.32-6.93,26-20.62,31.65,15.66,5.24,23.59,16.18,23.59,32.53V297.5c0,11.5-3.29,21.22-9.8,28.89S273.62,338,258.8,338Zm36.28-21.77c6.26,0,11.12-1.57,14.46-4.67s5-8.81,5-17v-8.42c0-15.44-6.69-22.94-20.46-22.94h-12v53.06Zm-1.73-72.35c13.1,0,19.47-7.18,19.47-21.95v-9.67c0-11.93-6.45-17.73-19.72-17.73h-11v49.35Z"/><path class="cls-3" d="M257.8,174.6q39.4,0,39.4,32.71v14.62q0,23.53-21.8,31.71,24.77,7.44,24.78,32.47V297.5q0,17.1-9.67,28.5T258.8,337.4H222.12V174.6H257.8m-13.63,69.88h11.9q20.07,0,20.07-22.55v-9.67q0-18.33-20.32-18.33H244.17v50.55m0,72.35H257.8q9.68,0,14.87-4.83t5.2-17.47v-8.42q0-23.55-21.06-23.54H244.17v54.26M257.8,173.4H220.92V338.6H258.8c15,0,26-4,32.63-11.82s9.95-17.63,9.95-29.28V286.11c0-16.13-7.59-27.08-22.56-32.59,13-5.93,19.58-16.54,19.58-31.59V207.31c0-22.5-13.66-33.91-40.6-33.91Zm-12.43,21.73h10.45c12.87,0,19.12,5.6,19.12,17.13v9.67c0,14.36-6.17,21.35-18.87,21.35h-10.7V195.13Zm0,68.64h11.44c13.37,0,19.86,7.3,19.86,22.34v8.42c0,8-1.62,13.62-4.81,16.59s-8,4.51-14.06,4.51H245.37V263.77Z"/></svg>