<svg id="Layer_1" data-name="Layer 1" xmlns="http://www.w3.org/2000/svg" viewBox="0 0 512 512"><defs><style>.cls-1,.cls-2{fill:none;stroke:#fff;stroke-miterlimit:10;}.cls-1{stroke-width:20px;}.cls-2{stroke-width:12px;}.cls-3{fill:#fff;}</style></defs><circle class="cls-1" cx="256" cy="256" r="174.64"/><circle class="cls-2" cx="256" cy="256" r="93"/><path class="cls-3" d="M254,291.85c-7.38,0-13-3.69-16.75-11-3.56-6.95-5.37-16.16-5.37-27.39a100.9,100.9,0,0,1,1.62-19.32,27.12,27.12,0,0,1,6.58-13.68c3.35-3.55,8-5.35,13.92-5.35,5.73,0,9.78.75,12.39,2.29l.73.44v12.34l-2.25-1.31a20,20,0,0,0-10-2.21c-4.26,0-6.87,2-8.22,6.3-1.48,4.73-2.23,11.59-2.23,20.39C244.45,271,247.67,280,254,280c4.42,0,8-.91,10.67-2.7l2.34-1.58v13l-.76.43A24.87,24.87,0,0,1,254,291.85Z"/><path class="cls-3" d="M254,216.65q8.11,0,11.62,2.08v8.88a21.36,21.36,0,0,0-10.75-2.41q-7.34,0-9.65,7.35T243,253.39q0,28.08,11.08,28.07,7.12,0,11.51-3v9.33q-4.5,2.52-11.51,2.52-10.2,0-15.41-10.15t-5.21-26.7a99.52,99.52,0,0,1,1.59-19,25.59,25.59,0,0,1,6.2-12.94q4.61-4.87,12.83-4.88m0-3c-6.32,0-11.37,2-15,5.82a28.61,28.61,0,0,0-6.95,14.42,102.29,102.29,0,0,0-1.65,19.61c0,11.47,1.86,20.92,5.54,28.07,4,7.82,10.09,11.78,18.08,11.78a26.37,26.37,0,0,0,13-2.91l1.53-.86V272.86L263.86,276c-2.4,1.62-5.71,2.44-9.83,2.44-7,0-8.08-15.71-8.08-25.07,0-8.65.73-15.36,2.17-19.94,1.13-3.63,3.23-5.25,6.78-5.25a18.53,18.53,0,0,1,9.25,2l4.5,2.61V217l-1.47-.87c-2.84-1.68-7.14-2.5-13.15-2.5Z"/></svg>