<svg id="Layer_1" data-name="Layer 1" xmlns="http://www.w3.org/2000/svg" viewBox="0 0 512 512"><defs><style>.cls-1{fill:#fff;}.cls-2{fill:none;stroke:#fff;stroke-linecap:round;stroke-miterlimit:10;stroke-width:25px;}</style></defs><path class="cls-1" d="M410.46,381.39l59.38-30.33c4-2,9.66,1.72,9.37,6.21L474.8,425c-.26,3.88-4.93,5.41-8.7,2.84l-55-37.4C407.42,387.92,407.07,383.12,410.46,381.39Z"/><path class="cls-2" d="M271.05,19A237.41,237.41,0,0,0,78.58,413.24a237.42,237.42,0,0,0,335.11,20.64l37.64-37.64M363.9,44.15"/><path class="cls-1" d="M256,90.21a165.79,165.79,0,1,1-117.23,48.56A164.72,164.72,0,0,1,256,90.21m0-20C153.39,70.21,70.21,153.39,70.21,256S153.39,441.79,256,441.79,441.79,358.61,441.79,256,358.61,70.21,256,70.21Z"/><path class="cls-1" d="M256,139a117,117,0,1,1-82.73,34.27A116.23,116.23,0,0,1,256,139m0-9A126,126,0,1,0,382,256,126,126,0,0,0,256,130Z"/><path class="cls-1" d="M256,175.9A80.1,80.1,0,1,1,175.9,256,80.2,80.2,0,0,1,256,175.9m0-9A89.1,89.1,0,1,0,345.1,256,89.1,89.1,0,0,0,256,166.9Z"/><path class="cls-1" d="M256,217.29A38.71,38.71,0,1,1,217.29,256,38.75,38.75,0,0,1,256,217.29m0-9A47.71,47.71,0,1,0,303.71,256,47.71,47.71,0,0,0,256,208.29Z"/></svg>