<svg id="Layer_1" data-name="Layer 1" xmlns="http://www.w3.org/2000/svg" viewBox="0 0 512 512"><defs><style>.cls-1{fill:none;stroke-width:20px;}.cls-1,.cls-2{stroke:#fff;stroke-miterlimit:10;}.cls-2,.cls-3{fill:#fff;}</style></defs><path class="cls-1" d="M444.65,183.77H340.88a12.65,12.65,0,0,1-12.65-12.65V67.35A27.94,27.94,0,0,0,300.3,39.42H211.7a27.94,27.94,0,0,0-27.93,27.93V171.12a12.65,12.65,0,0,1-12.65,12.65H67.35A27.94,27.94,0,0,0,39.42,211.7v88.6a27.94,27.94,0,0,0,27.93,27.93H171.12a12.65,12.65,0,0,1,12.65,12.65V444.65a27.94,27.94,0,0,0,27.93,27.93h88.6a27.94,27.94,0,0,0,27.93-27.93V340.88a12.65,12.65,0,0,1,12.65-12.65H444.65a27.94,27.94,0,0,0,27.93-27.93V211.7A27.94,27.94,0,0,0,444.65,183.77Z"/><path class="cls-2" d="M94.52,257.07l39.28,17.35a2.13,2.13,0,0,0,3.24-1.81V237.9a2.13,2.13,0,0,0-3.24-1.81L94.52,253.44A2.13,2.13,0,0,0,94.52,257.07Z"/><path class="cls-3" d="M340.88,327.48H444.65a27.93,27.93,0,0,0,27.93-27.93V211A27.93,27.93,0,0,0,444.65,183H340.88c-7,0-22.6-5.67-22.6-12.66V340.14C318.28,333.15,333.89,327.48,340.88,327.48ZM375,255.25V237.9a2.13,2.13,0,0,1,3.24-1.81l39.28,17.35a2.13,2.13,0,0,1,0,3.63L378.2,274.42a2.13,2.13,0,0,1-3.24-1.81Z"/><path class="cls-2" d="M257.81,419.23,275.16,380a2.13,2.13,0,0,0-1.81-3.24h-34.7a2.13,2.13,0,0,0-1.82,3.24l17.36,39.28A2.12,2.12,0,0,0,257.81,419.23Z"/><path class="cls-2" d="M254.19,92.77l-17.36,39.28a2.13,2.13,0,0,0,1.82,3.24h34.7a2.13,2.13,0,0,0,1.81-3.24L257.81,92.77A2.12,2.12,0,0,0,254.19,92.77Z"/></svg>