<svg id="Layer_1" data-name="Layer 1" xmlns="http://www.w3.org/2000/svg" viewBox="0 0 512 512"><defs><style>.cls-1{fill:none;stroke-width:20px;}.cls-1,.cls-2{stroke:#fff;stroke-miterlimit:10;}.cls-2,.cls-3{fill:#fff;}</style></defs><path class="cls-1" d="M183.77,67.35V171.12a12.65,12.65,0,0,1-12.65,12.65H67.35A27.94,27.94,0,0,0,39.42,211.7v88.6a27.94,27.94,0,0,0,27.93,27.93H171.12a12.65,12.65,0,0,1,12.65,12.65V444.65a27.94,27.94,0,0,0,27.93,27.93h88.6a27.94,27.94,0,0,0,27.93-27.93V340.88a12.65,12.65,0,0,1,12.65-12.65H444.65a27.94,27.94,0,0,0,27.93-27.93V211.7a27.94,27.94,0,0,0-27.93-27.93H340.88a12.65,12.65,0,0,1-12.65-12.65V67.35A27.94,27.94,0,0,0,300.3,39.42H211.7A27.94,27.94,0,0,0,183.77,67.35Z"/><path class="cls-2" d="M257.07,417.48l17.35-39.28a2.13,2.13,0,0,0-1.81-3.24H237.9a2.13,2.13,0,0,0-1.81,3.24l17.35,39.28A2.13,2.13,0,0,0,257.07,417.48Z"/><path class="cls-3" d="M327.48,171.12V67.35a27.93,27.93,0,0,0-27.93-27.93H211A27.93,27.93,0,0,0,183,67.35V171.12c0,7-5.67,22.6-12.66,22.6H340.14C333.15,193.72,327.48,178.11,327.48,171.12ZM255.25,137H237.9a2.13,2.13,0,0,1-1.81-3.24l17.35-39.28a2.13,2.13,0,0,1,3.63,0l17.35,39.28a2.13,2.13,0,0,1-1.81,3.24Z"/><path class="cls-2" d="M419.23,254.19,380,236.84a2.13,2.13,0,0,0-3.24,1.81v34.7a2.13,2.13,0,0,0,3.24,1.82l39.28-17.36A2.12,2.12,0,0,0,419.23,254.19Z"/><path class="cls-2" d="M92.77,257.81l39.28,17.36a2.13,2.13,0,0,0,3.24-1.82v-34.7a2.13,2.13,0,0,0-3.24-1.81L92.77,254.19A2.12,2.12,0,0,0,92.77,257.81Z"/></svg>