<svg id="Layer_1" data-name="Layer 1" xmlns="http://www.w3.org/2000/svg" viewBox="0 0 512 512"><defs><style>.cls-1{fill:none;stroke:#fff;stroke-miterlimit:10;stroke-width:24px;}.cls-2{fill:#fff;}.cls-3{fill:#dce0df;}</style></defs><path class="cls-1" d="M256.1,127C89.81,127-7.38,385,90,385H422.19c95.89,0,2.94-258-166.09-258Z"/><path class="cls-2" d="M281.11,339l-34-71.42V339h-21.7V186.52h30.08c13.6,0,24,3.19,30.81,9.48s10.32,16.88,10.32,31.42c0,11-2.44,19.78-7.26,26.16-4.69,6.21-11.68,9.9-20.76,11L304.32,339Zm-27-86.64c6.86,0,12.06-1.76,15.46-5.24s5.13-10.27,5.13-20.19c0-7.49-1.5-13-4.46-16.42s-8-5.09-15-5.09h-8.15v46.94Z"/><path class="cls-3" d="M255.46,187.12q20.27,0,30.4,9.33t10.13,31q0,16.35-7.14,25.8T267.67,264l35.69,74.39H281.48l-35-73.47v73.47H226V187.12h29.48m-9,65.87h7.6q10.59,0,15.89-5.42t5.3-20.61q0-11.51-4.61-16.81t-15.43-5.3h-8.75V253m9-67.07H224.78V339.63h22.9V270.27l32.72,68.67.33.69h24.54l-.83-1.72-35-72.87c8.85-1.22,15.69-5,20.34-11.1,4.9-6.48,7.38-15.4,7.38-26.52,0-14.71-3.54-25.43-10.52-31.86s-17.45-9.64-31.21-9.64Zm-7.78,20.13h7.55c6.82,0,11.7,1.65,14.53,4.89s4.31,8.68,4.31,16c0,9.76-1.67,16.41-5,19.77s-8.34,5.06-15,5.06h-6.4V206.05Z"/></svg>