<svg id="Layer_1" data-name="Layer 1" xmlns="http://www.w3.org/2000/svg" viewBox="0 0 512 512"><defs><style>.cls-1{fill:none;stroke:#fff;stroke-miterlimit:10;stroke-width:24px;}.cls-2{fill:#fff;}.cls-3{fill:#dce0df;}</style></defs><path class="cls-1" d="M370.33,153.7H141.66a102.3,102.3,0,0,0,0,204.6H370.33a102.3,102.3,0,1,0,0-204.6Z"/><polygon class="cls-2" points="217.82 330.45 265.48 200.28 224.82 200.28 224.82 181.55 294.18 181.55 246.74 310.82 289.87 310.82 289.87 330.45 217.82 330.45"/><path class="cls-3" d="M293.32,182.15,245.88,311.42h43.39v18.43H218.68l47.66-130.17H225.43V182.15h67.89M295,181H224.22v19.93h40.4L217.55,329.44l-.59,1.61h73.51V310.22H247.6l46.85-127.66L295,181Z"/></svg>