<svg id="Layer_1" data-name="Layer 1" xmlns="http://www.w3.org/2000/svg" viewBox="0 0 512 512"><defs><style>.cls-1{fill:#fff;}.cls-2{fill:#dce0df;}.cls-3{fill:none;stroke:#fff;stroke-miterlimit:10;stroke-width:24px;}</style></defs><polygon class="cls-1" points="270.36 319.94 256.1 275.42 241.84 319.94 221.63 319.94 246.21 252.11 223.05 186.5 242.25 186.5 256.11 228.67 270.16 186.5 289.37 186.5 265.8 252.12 290.37 319.94 270.36 319.94"/><path class="cls-2" d="M288.51,187.1l-23.35,65,24.35,67.22H270.8l-14.7-45.89-14.69,45.89H222.49l24.35-67.22-22.94-65h17.91l14.29,43.48,14.49-43.48h17.92m1.71-1.2H269.73l-.28.82-13.34,40-13.16-40-.27-.83H222.2l.56,1.6,22.81,64.61-24.21,66.83-.58,1.6h21.5l.27-.83,13.55-42.32,13.55,42.32.27.83h21.3l-.58-1.6-24.2-66.83,23.2-64.6.58-1.61Z"/><path class="cls-3" d="M256,142C145.32,140.1,34.48,180.21,36.93,267.88c-1.55,58.39,52.35,109.19,112,101.45,3.09-.28,6.19-.68,9.29-1.25a351.56,351.56,0,0,1,95.21-13.87c.86,0,1.71,0,2.56,0s1.7,0,2.56,0a351.56,351.56,0,0,1,95.21,13.87c3.1.57,6.2,1,9.29,1.25,59.67,7.74,113.56-43.07,112-101.46C477.51,180.21,366.67,140.1,256,142Z"/></svg>