<svg id="Layer_1" data-name="Layer 1" xmlns="http://www.w3.org/2000/svg" viewBox="0 0 512 512"><defs><style>.cls-1{fill:#fff;}.cls-2{fill:#dce0df;}.cls-3{fill:none;stroke:#fff;stroke-miterlimit:10;stroke-width:24px;}</style></defs><polygon class="cls-1" points="245.73 321.89 245.73 263.98 220.19 185.5 240.19 185.5 255.6 239.31 271.6 185.5 291.81 185.5 265.65 263.98 265.65 321.89 245.73 321.89"/><path class="cls-2" d="M291,186.1l-25.92,77.78v57.41H246.33V263.88L221,186.1h18.72l15.85,55.35,16.46-55.35H291m1.67-1.2h-21.5l-.25.85-15.29,51.42-14.71-51.4-.25-.87H219.36l.52,1.57,25.25,77.6v58.42h21.13V264.08l25.86-77.6.53-1.58Z"/><path class="cls-3" d="M256,142C145.32,140.1,34.48,180.21,36.93,267.88c-1.55,58.39,52.35,109.19,112,101.45,3.09-.28,6.19-.68,9.29-1.25a351.56,351.56,0,0,1,95.21-13.87c.86,0,1.71,0,2.56,0s1.7,0,2.56,0a351.56,351.56,0,0,1,95.21,13.87c3.1.57,6.2,1,9.29,1.25,59.67,7.74,113.56-43.07,112-101.46C477.51,180.21,366.67,140.1,256,142Z"/></svg>