<svg id="Layer_1" data-name="Layer 1" xmlns="http://www.w3.org/2000/svg" viewBox="0 0 512 512"><path d="M415.82,194.2C371.64,141.18,314.92,112,256.1,112c-58.16,0-114.7,29.34-159.2,82.6C60,238.72,36.2,294.76,36.2,337.34c0,18,4.18,32.61,12.42,43.48C55.26,389.58,67.83,400,90,400H422.19c17.52,0,31.8-6.75,41.29-19.51,8.18-11,12.32-25.73,12.32-43.85C475.8,293.85,452.26,237.94,415.82,194.2ZM422.19,385H90c-97.39,0-.2-258,166.09-258C425.13,127,518.08,385,422.19,385Z"/><path d="M432.16,278.14a256.44,256.44,0,0,0-39.39-64.73c-18-21.67-38.37-38.84-60.39-51C308,148.84,282.34,142,256.1,142c-66.27,0-113.76,45-136.18,71.84C87.79,252.28,66.2,301.92,66.2,337.34c0,11.13,2.19,19.9,6.33,25.36C74.91,365.84,79.31,370,90,370H422.19c10.49,0,14.85-4.23,17.22-7.41,4.18-5.62,6.39-14.59,6.39-26C445.8,320.05,441,299.27,432.16,278.14ZM298.25,318.85v20h-67V185.07h23V317.76h44.07Z"/></svg>