<svg id="Layer_1" data-name="Layer 1" xmlns="http://www.w3.org/2000/svg" viewBox="0 0 512 512"><defs><style>.cls-1{fill:#fff;}</style></defs><path class="cls-1" d="M276.14,221.93v-9.67q0-18.33-20.32-18.33H244.17v50.55h11.9Q276.14,244.48,276.14,221.93Z"/><path class="cls-1" d="M256.81,262.57H244.17v54.26H257.8q9.68,0,14.87-4.83t5.2-17.47v-8.42Q277.87,262.56,256.81,262.57Z"/><path class="cls-1" d="M256,89.78A166.22,166.22,0,1,0,422.22,256,166.22,166.22,0,0,0,256,89.78Zm0,310c-79.31,0-143.83-64.52-143.83-143.83S176.69,112.17,256,112.17,399.83,176.69,399.83,256,335.31,399.83,256,399.83Z"/><path class="cls-1" d="M256,127.17A128.83,128.83,0,1,0,384.83,256,129,129,0,0,0,256,127.17ZM300.18,297.5q0,17.1-9.67,28.5T258.8,337.4H222.12V174.6H257.8q39.4,0,39.4,32.71v14.62q0,23.53-21.8,31.71,24.77,7.44,24.78,32.47Z"/></svg>