<svg id="Layer_1" data-name="Layer 1" xmlns="http://www.w3.org/2000/svg" viewBox="0 0 512 512"><defs><style>.cls-1{fill:#fff;}</style></defs><path class="cls-1" d="M374.21,137.79a167.18,167.18,0,1,0,49,118.21A166.11,166.11,0,0,0,374.21,137.79ZM256,355a99,99,0,1,1,99-99A99.11,99.11,0,0,1,256,355Z"/><path class="cls-1" d="M256,174a82,82,0,1,0,82,82A82.09,82.09,0,0,0,256,174Zm11.93,60.15-4.25-2.46A17.47,17.47,0,0,0,255,229.8c-3.36,0-5.33,1.52-6.4,4.94-1.36,4.33-2,10.65-2,18.8,0,8.83,1,23.63,7.61,23.63,3.89,0,7-.77,9.27-2.3l4.41-3v15.76l-1.44.81a24.85,24.85,0,0,1-12.24,2.74c-7.53,0-13.26-3.73-17-11.1-3.46-6.74-5.22-15.65-5.22-26.46a97,97,0,0,1,1.55-18.48A27,27,0,0,1,240,221.57c3.44-3.64,8.2-5.49,14.15-5.49,5.67,0,9.72.77,12.4,2.36l1.39.82Z"/></svg>