<svg id="Layer_1" data-name="Layer 1" xmlns="http://www.w3.org/2000/svg" viewBox="0 0 512 512"><defs><style>.cls-1{fill:#fff;}</style></defs><path class="cls-1" d="M89.83,145.94l-9.94-7.43L11.36,253.09,79.89,368.6l9.94-8.37c-21.28-29.17-34.06-66.48-34.06-107.14S68.55,175.11,89.83,145.94Z"/><path class="cls-1" d="M363.11,88.83l7.43-9.94L256,10.36,140.46,78.89l8.36,9.94C178,67.55,215.3,54.77,256,54.77S333.94,67.55,363.11,88.83Z"/><path class="cls-1" d="M425.2,363.61l9.94,7.43,68.53-114.57L435.14,141l-9.94,8.36c21.28,29.17,34.06,66.48,34.06,107.15S446.48,334.44,425.2,363.61Z"/><path class="cls-1" d="M147.89,425.31l-7.43,9.94L255,503.78l115.51-68.53-8.36-9.94C333,446.59,295.7,459.37,255,459.37S177.06,446.59,147.89,425.31Z"/><path class="cls-1" d="M256,180.06A75.94,75.94,0,1,0,331.94,256,76,76,0,0,0,256,180.06Zm0,124.49A48.55,48.55,0,1,1,304.55,256,48.55,48.55,0,0,1,256,304.55Z"/><circle class="cls-1" cx="256" cy="256" r="33.83" transform="translate(-37.7 44.31) rotate(-9.22)"/><path class="cls-1" d="M336.25,175.75A113.49,113.49,0,1,0,369.49,256,112.79,112.79,0,0,0,336.25,175.75ZM256,346.66A90.66,90.66,0,1,1,346.66,256,90.66,90.66,0,0,1,256,346.66Z"/><path class="cls-1" d="M374.21,137.79a167.18,167.18,0,1,0,49,118.21A166.11,166.11,0,0,0,374.21,137.79ZM256,384.21A128.21,128.21,0,1,1,384.21,256,128.21,128.21,0,0,1,256,384.21Z"/></svg>