<svg id="Layer_1" data-name="Layer 1" xmlns="http://www.w3.org/2000/svg" viewBox="0 0 512 512"><defs><style>.cls-1{fill:#fff;}</style></defs><path class="cls-1" d="M444.65,173.77H340.88a2.65,2.65,0,0,1-2.65-2.65V67.35A38,38,0,0,0,300.3,29.42H211.71a38,38,0,0,0-37.94,37.93V171.12a2.65,2.65,0,0,1-2.65,2.65H67.35A38,38,0,0,0,29.42,211.7v88.6a38,38,0,0,0,37.93,37.93H171.12a2.65,2.65,0,0,1,2.65,2.65V444.65a38,38,0,0,0,37.94,37.93H300.3a38,38,0,0,0,37.93-37.93V340.88a2.65,2.65,0,0,1,2.65-2.65H444.65a38,38,0,0,0,37.93-37.93V211.7A38,38,0,0,0,444.65,173.77ZM137,256.75V274.1a2.13,2.13,0,0,1-3.24,1.81L94.52,258.56a2.13,2.13,0,0,1,0-3.63l39.28-17.35a2.13,2.13,0,0,1,3.24,1.81ZM275.17,380l-17.36,39.28a2.12,2.12,0,0,1-3.62,0L236.84,380a2.13,2.13,0,0,1,1.81-3.24h34.7A2.13,2.13,0,0,1,275.17,380Zm-1.82-244.66h-34.7a2.13,2.13,0,0,1-1.81-3.24l17.35-39.28a2.12,2.12,0,0,1,3.62,0l17.36,39.28A2.13,2.13,0,0,1,273.35,135.29ZM417.48,258.56,378.2,275.91A2.13,2.13,0,0,1,375,274.1V239.39a2.13,2.13,0,0,1,3.24-1.81l39.28,17.35A2.13,2.13,0,0,1,417.48,258.56Z"/></svg>