<svg id="Layer_1" data-name="Layer 1" xmlns="http://www.w3.org/2000/svg" viewBox="0 0 512 512"><defs><style>.cls-1,.cls-2{fill:#fff;}.cls-1{stroke:#fff;stroke-miterlimit:10;}</style></defs><path class="cls-1" d="M254.19,92.77l-17.35,39.28a2.13,2.13,0,0,0,1.81,3.24h34.7a2.13,2.13,0,0,0,1.81-3.24L257.81,92.77A2.12,2.12,0,0,0,254.19,92.77Z"/><path class="cls-2" d="M338.23,444.65V340.88a2.65,2.65,0,0,1,2.65-2.65H444.65a38,38,0,0,0,37.93-37.93V211.7a38,38,0,0,0-37.93-37.93H340.88a2.65,2.65,0,0,1-2.65-2.65V67.35A38,38,0,0,0,300.3,29.42H211.7a38,38,0,0,0-37.93,37.93V171.12a2.65,2.65,0,0,1-2.65,2.65H67.35A38,38,0,0,0,29.42,211.7v88.6a38,38,0,0,0,37.93,37.93H171.12a2.65,2.65,0,0,1,2.65,2.65V444.65a38,38,0,0,0,37.93,37.93h88.6A38,38,0,0,0,338.23,444.65ZM256,376.71h17.35a2.13,2.13,0,0,1,1.81,3.24l-17.35,39.27a2.12,2.12,0,0,1-3.62,0L236.84,380a2.13,2.13,0,0,1,1.81-3.24ZM376.71,273.35v-34.7a2.13,2.13,0,0,1,3.24-1.82l39.28,17.36a2.12,2.12,0,0,1,0,3.62L380,275.16A2.13,2.13,0,0,1,376.71,273.35ZM133.8,274.42,94.52,257.07a2.13,2.13,0,0,1,0-3.63l39.28-17.35A2.13,2.13,0,0,1,137,237.9v34.71A2.13,2.13,0,0,1,133.8,274.42Zm60-103.3V67.35A18,18,0,0,1,211.7,49.42h88.6a18,18,0,0,1,17.93,17.93V171.12a22,22,0,0,0,.21,3H193.56A22,22,0,0,0,193.77,171.12Z"/></svg>