<svg id="Layer_1" data-name="Layer 1" xmlns="http://www.w3.org/2000/svg" viewBox="0 0 512 512"><defs><style>.cls-1,.cls-2{fill:#fff;}.cls-1,.cls-3{stroke:#fff;stroke-miterlimit:10;}.cls-3{fill:none;stroke-linecap:round;stroke-width:12px;}</style></defs><path class="cls-1" d="M257.57,88l15.07-51.95c.76-1.88-.13-4.28-1.57-4.28H240.93c-1.44,0-2.33,2.4-1.57,4.28l15.07,52C255.15,89.82,256.85,89.82,257.57,88Z"/><path class="cls-1" d="M92.07,159.74,66,112.34c-.79-1.85-3.12-2.93-4.14-1.91L51.19,121.09,40.54,131.74c-1,1,.05,3.35,1.91,4.14L89.85,162C91.62,162.72,92.83,161.51,92.07,159.74Z"/><path class="cls-1" d="M419.93,159.74,446,112.34c.79-1.85,3.12-2.93,4.14-1.91l10.66,10.66,10.65,10.65c1,1,0,3.35-1.91,4.14L422.15,162C420.38,162.72,419.17,161.51,419.93,159.74Z"/><path class="cls-2" d="M415.82,194.2C371.64,141.18,314.92,112,256.1,112c-58.16,0-114.7,29.34-159.2,82.6C60,238.72,36.2,294.76,36.2,337.34c0,18,4.18,32.61,12.42,43.48C55.26,389.58,67.83,400,90,400H422.19c17.52,0,31.8-6.75,41.29-19.51,8.18-11,12.32-25.73,12.32-43.85C475.8,293.85,452.26,237.94,415.82,194.2ZM422.19,385H90c-97.39,0-.2-258,166.09-258C425.13,127,518.08,385,422.19,385Z"/><path class="cls-2" d="M432.16,278.14a256.44,256.44,0,0,0-39.39-64.73c-18-21.67-38.37-38.84-60.39-51C308,148.84,282.34,142,256.1,142c-66.27,0-113.76,45-136.18,71.84C87.79,252.28,66.2,301.92,66.2,337.34c0,11.13,2.19,19.9,6.33,25.36C74.91,365.84,79.31,370,90,370H422.19c10.49,0,14.85-4.23,17.22-7.41,4.18-5.62,6.39-14.59,6.39-26C445.8,320.05,441,299.27,432.16,278.14ZM298.25,318.85v20h-67V185.07h23V317.76h44.07Z"/><path class="cls-3" d="M362.74,419.19h63.82c42.78,0,70.42-31.56,70.42-80.41,0-23.32-6.07-50.23-17.55-77.8q-2.64-6.35-5.63-12.62"/><path class="cls-3" d="M38.7,248.85C23.68,280.26,15,312.26,15,339.48c0,48.43,27.72,79.72,70.62,79.72h63.62"/></svg>