<svg id="Layer_1" data-name="Layer 1" xmlns="http://www.w3.org/2000/svg" viewBox="0 0 512 512"><defs><style>.cls-1{fill:#fff;}</style></defs><path class="cls-1" d="M457.23,190.68C419.61,152,347.11,128.89,263.3,128.89c-2.44,0-4.86,0-7.3.06s-4.87-.06-7.3-.06c-83.81,0-156.31,23.1-193.94,61.78-21.19,21.8-31.57,47.78-30.83,77.22-.68,29.24,11.15,58.55,32.49,80.45,21.51,22.1,50.83,34.77,80.42,34.77a107.41,107.41,0,0,0,13.52-.86c3.51-.32,6.94-.79,10.22-1.39l.66-.12.64-.18a336.78,336.78,0,0,1,91.62-13.35l1.38,0,1.05,0h.14l1.07,0,1.3,0a336.94,336.94,0,0,1,91.69,13.35l.63.18.68.13c3.26.59,6.69,1.06,10.2,1.38a107.29,107.29,0,0,0,13.52.86h0c29.59,0,58.9-12.67,80.41-34.76,21.34-21.91,33.17-51.22,32.49-80.47C488.8,238.45,478.43,212.47,457.23,190.68ZM375.16,370.11a93.55,93.55,0,0,1-12.1-.78c-3.09-.28-6.19-.68-9.29-1.25a351.56,351.56,0,0,0-95.21-13.87c-.84,0-1.67,0-2.5,0h-.12c-.83,0-1.66,0-2.5,0a351.56,351.56,0,0,0-95.21,13.87c-3.1.57-6.2,1-9.29,1.25a93.43,93.43,0,0,1-12.1.78c-54.65,0-101.35-47.82-99.91-102.23-2.39-85.74,103.57-126,211.77-126,2.43,0,4.87,0,7.3.06s4.86-.06,7.3-.06c108.19,0,214.16,40.25,211.77,126C476.52,322.29,429.82,370.11,375.16,370.11Z"/><path class="cls-1" d="M437.16,210.2c-16.23-16.69-41.27-30.41-72.42-39.68-30-8.92-65.05-13.63-101.44-13.63-2.37,0-4.67,0-7.05.06h-.5c-2.34,0-4.71-.06-7.05-.06-36.39,0-71.47,4.71-101.44,13.63-31.15,9.27-56.19,23-72.42,39.67C59,226.45,51.32,245.72,51.93,267.46v.82c-.58,21.85,8.36,43.91,24.55,60.53s38.28,26.3,60.36,26.3a78.82,78.82,0,0,0,10.17-.66l.29,0,.3,0c2.48-.22,4.91-.54,7.21-.94a365.49,365.49,0,0,1,98.5-14.24h1c.55,0,1.09,0,1.64,0h.12c.55,0,1.09,0,1.64,0h1a365.49,365.49,0,0,1,98.5,14.24c2.3.4,4.73.72,7.21.94l.3,0,.29,0a78.82,78.82,0,0,0,10.17.66c22.09,0,44.09-9.58,60.37-26.3s25.13-38.68,24.54-60.54v-.82C460.68,245.72,453,226.46,437.16,210.2ZM270.8,319.34l-14.7-45.89-14.69,45.89H222.49l24.35-67.22-22.94-65h17.91l14.29,43.48,14.49-43.48h17.92l-23.35,65,24.35,67.22Z"/></svg>