<svg id="Layer_1" data-name="Layer 1" xmlns="http://www.w3.org/2000/svg" xmlns:xlink="http://www.w3.org/1999/xlink" viewBox="0 0 512 512"><defs><style>.cls-1{stroke:#4b7873;stroke-miterlimit:10;stroke-width:24px;fill:url(#radial-gradient);}.cls-2{opacity:0.33;}.cls-3{fill:#231f20;}</style><radialGradient id="radial-gradient" cx="256" cy="256" r="166.22" gradientUnits="userSpaceOnUse"><stop offset="0.83" stop-color="#82d3cd"/><stop offset="1" stop-color="#6cb0ab"/></radialGradient></defs><circle class="cls-1" cx="256" cy="256" r="166.22"/><g class="cls-2"><path d="M271.48,295.1l-4.79-19.33H245.17l-4.5,19.33H226l23.35-99.62h13.38L286,295.1Zm-7.3-31.61-8.11-39.16-8.24,39.16Z"/><path class="cls-3" d="M262.22,196.08l23.07,98.42H272l-4.79-19.33H244.69L240.2,294.5H226.71l23.07-98.42h12.44m-15.13,68h17.82l-8.84-42.7-9,42.7m16.08-69.21H248.83l-.22.92-23.07,98.43-.34,1.47h16l.21-.93,4.28-18.4h20.58l4.57,18.42.23.91H286.8l-.34-1.47L263.38,195.8l-.21-.92Zm-14.6,68,7.49-35.62,7.38,35.62Z"/></g></svg>