<svg id="Layer_1" data-name="Layer 1" xmlns="http://www.w3.org/2000/svg" xmlns:xlink="http://www.w3.org/1999/xlink" viewBox="0 0 512 512"><defs><style>.cls-1{stroke:#4f4f4f;stroke-width:20px;fill:url(#radial-gradient);}.cls-1,.cls-2{stroke-miterlimit:10;}.cls-2{stroke:#000;}.cls-3{fill:#4f4f4f;opacity:0.85;}</style><radialGradient id="radial-gradient" cx="256" cy="256" r="216.58" gradientTransform="translate(0 512) rotate(-90)" gradientUnits="userSpaceOnUse"><stop offset="0.69" stop-color="#d5d2dd"/><stop offset="1" stop-color="#96949c"/></radialGradient></defs><path class="cls-1" d="M328.23,444.65V340.88a12.65,12.65,0,0,1,12.65-12.65H444.65a27.94,27.94,0,0,0,27.93-27.93V211.7a27.94,27.94,0,0,0-27.93-27.93H340.88a12.65,12.65,0,0,1-12.65-12.65V67.35A27.94,27.94,0,0,0,300.3,39.42H211.7a27.94,27.94,0,0,0-27.93,27.93V171.12a12.65,12.65,0,0,1-12.65,12.65H67.35A27.94,27.94,0,0,0,39.42,211.7v88.6a27.94,27.94,0,0,0,27.93,27.93H171.12a12.65,12.65,0,0,1,12.65,12.65V444.65a27.94,27.94,0,0,0,27.93,27.93h88.6A27.94,27.94,0,0,0,328.23,444.65Z"/><path class="cls-2" d="M254.93,94.52,237.58,133.8a2.13,2.13,0,0,0,1.81,3.24H274.1a2.13,2.13,0,0,0,1.81-3.24L258.56,94.52A2.13,2.13,0,0,0,254.93,94.52Z"/><path class="cls-3" d="M184.52,340.88V444.65a27.93,27.93,0,0,0,27.93,27.93H301A27.93,27.93,0,0,0,329,444.65V340.88c0-7,5.67-22.6,12.66-22.6H171.86C178.85,318.28,184.52,333.89,184.52,340.88ZM256.75,375H274.1a2.13,2.13,0,0,1,1.81,3.24l-17.35,39.28a2.13,2.13,0,0,1-3.63,0L237.58,378.2a2.13,2.13,0,0,1,1.81-3.24Z"/><path class="cls-2" d="M92.77,257.81l39.28,17.35a2.13,2.13,0,0,0,3.24-1.81v-34.7a2.13,2.13,0,0,0-3.24-1.82L92.77,254.19A2.12,2.12,0,0,0,92.77,257.81Z"/><path class="cls-2" d="M419.23,254.19,380,236.83a2.13,2.13,0,0,0-3.24,1.82v34.7a2.13,2.13,0,0,0,3.24,1.81l39.28-17.35A2.12,2.12,0,0,0,419.23,254.19Z"/></svg>