<svg id="Layer_1" data-name="Layer 1" xmlns="http://www.w3.org/2000/svg" xmlns:xlink="http://www.w3.org/1999/xlink" viewBox="0 0 512 512"><defs><style>.cls-1,.cls-4{stroke:#4f4f4f;}.cls-1,.cls-4,.cls-5{stroke-miterlimit:10;}.cls-1{stroke-width:24px;fill:url(#linear-gradient);}.cls-2{opacity:0.4;}.cls-3{fill:#231f20;}.cls-4{fill:none;stroke-linecap:round;stroke-width:12px;}.cls-5{stroke:#000;}</style><linearGradient id="linear-gradient" x1="51.2" y1="256" x2="460.8" y2="256" gradientUnits="userSpaceOnUse"><stop offset="0" stop-color="#9e9ca4"/><stop offset="0.28" stop-color="#c0bdc7"/><stop offset="0.48" stop-color="#d5d2dd"/><stop offset="0.61" stop-color="#d1ced9"/><stop offset="0.74" stop-color="#c5c2cc"/><stop offset="0.87" stop-color="#b1aeb8"/><stop offset="1" stop-color="#96949c"/></linearGradient></defs><path class="cls-1" d="M256.1,127C89.81,127-7.38,385,90,385H422.19c95.89,0,2.94-258-166.09-258Z"/><g class="cls-2"><polygon points="228.62 347.34 228.62 178.21 252.56 178.21 252.56 325.18 300.87 325.18 300.87 347.34 228.62 347.34"/><path class="cls-3" d="M252,178.81v147h48.31v21H229.21V178.81H252m1.2-1.2H228V347.94h73.46V324.58H253.16v-147Z"/></g><path class="cls-4" d="M362.74,419.19h63.82c42.78,0,70.42-31.56,70.42-80.41,0-23.32-6.07-50.23-17.55-77.8q-2.64-6.35-5.63-12.62"/><path class="cls-4" d="M38.7,248.85C23.68,280.26,15,312.26,15,339.48c0,48.43,27.72,79.72,70.62,79.72h63.62"/><path class="cls-5" d="M257.57,88l15.07-51.95c.76-1.88-.13-4.28-1.57-4.28H240.93c-1.44,0-2.33,2.4-1.57,4.28l15.07,52C255.15,89.82,256.85,89.82,257.57,88Z"/><path class="cls-5" d="M92.07,159.74,66,112.34c-.79-1.85-3.12-2.93-4.14-1.91L51.19,121.09,40.54,131.74c-1,1,.05,3.35,1.91,4.14L89.85,162C91.62,162.72,92.83,161.51,92.07,159.74Z"/><path class="cls-5" d="M419.93,159.74,446,112.34c.79-1.85,3.12-2.93,4.14-1.91l10.66,10.66,10.65,10.65c1,1,0,3.35-1.91,4.14L422.15,162C420.38,162.72,419.17,161.51,419.93,159.74Z"/></svg>