<svg id="Layer_1" data-name="Layer 1" xmlns="http://www.w3.org/2000/svg" xmlns:xlink="http://www.w3.org/1999/xlink" viewBox="0 0 512 512"><defs><style>.cls-1,.cls-2{stroke:#4f4f4f;}.cls-1,.cls-2,.cls-3{stroke-miterlimit:10;}.cls-1{stroke-width:24px;fill:url(#linear-gradient);}.cls-2{fill:none;stroke-linecap:round;stroke-width:12px;}.cls-3{stroke:#000;}.cls-4{opacity:0.4;}.cls-5{fill:#231f20;}</style><linearGradient id="linear-gradient" x1="51.2" y1="256" x2="460.8" y2="256" gradientUnits="userSpaceOnUse"><stop offset="0" stop-color="#9e9ca4"/><stop offset="0.28" stop-color="#c0bdc7"/><stop offset="0.48" stop-color="#d5d2dd"/><stop offset="0.61" stop-color="#d1ced9"/><stop offset="0.74" stop-color="#c5c2cc"/><stop offset="0.87" stop-color="#b1aeb8"/><stop offset="1" stop-color="#96949c"/></linearGradient></defs><path class="cls-1" d="M256.1,127C89.81,127-7.38,385,90,385H422.19c95.89,0,2.94-258-166.09-258Z"/><path class="cls-2" d="M362.74,419.19h63.82c42.78,0,70.42-31.56,70.42-80.41,0-23.32-6.07-50.23-17.55-77.8q-2.64-6.35-5.63-12.62"/><path class="cls-2" d="M38.7,248.85C23.68,280.26,15,312.26,15,339.48c0,48.43,27.72,79.72,70.62,79.72h63.62"/><path class="cls-3" d="M257.57,88l15.07-51.95c.76-1.88-.13-4.28-1.57-4.28H240.93c-1.44,0-2.33,2.4-1.57,4.28l15.07,52C255.15,89.82,256.85,89.82,257.57,88Z"/><g class="cls-4"><path d="M281.11,339l-34-71.42V339h-21.7V186.52h30.08c13.6,0,24,3.19,30.81,9.48s10.32,16.88,10.32,31.42c0,11-2.44,19.78-7.26,26.16-4.69,6.21-11.68,9.9-20.76,11L304.32,339Zm-27-86.64c6.86,0,12.06-1.76,15.46-5.24s5.13-10.27,5.13-20.19c0-7.49-1.5-13-4.46-16.42s-8-5.09-15-5.09h-8.15v46.94Z"/><path class="cls-5" d="M255.46,187.12q20.27,0,30.4,9.33t10.13,31q0,16.35-7.14,25.8T267.67,264l35.69,74.39H281.48l-35-73.47v73.47H226V187.12h29.48m-9,65.87h7.6q10.59,0,15.89-5.42t5.3-20.61q0-11.51-4.61-16.81t-15.43-5.3h-8.75V253m9-67.07H224.78V339.63h22.9V270.27l32.72,68.67.33.69h24.54l-.83-1.72-35-72.87c8.85-1.22,15.69-5,20.34-11.1,4.9-6.48,7.38-15.4,7.38-26.52,0-14.71-3.54-25.43-10.52-31.86s-17.45-9.64-31.21-9.64Zm-7.78,20.13h7.55c6.82,0,11.7,1.65,14.53,4.89s4.31,8.68,4.31,16c0,9.76-1.67,16.41-5,19.77s-8.34,5.06-15,5.06h-6.4V206.05Z"/></g><path class="cls-3" d="M92.07,159.74,66,112.34c-.79-1.85-3.12-2.93-4.14-1.91L51.19,121.09,40.54,131.74c-1,1,.05,3.35,1.91,4.14L89.85,162C91.62,162.72,92.83,161.51,92.07,159.74Z"/><path class="cls-3" d="M419.93,159.74,446,112.34c.79-1.85,3.12-2.93,4.14-1.91l10.66,10.66,10.65,10.65c1,1,0,3.35-1.91,4.14L422.15,162C420.38,162.72,419.17,161.51,419.93,159.74Z"/></svg>