<svg id="Layer_1" data-name="Layer 1" xmlns="http://www.w3.org/2000/svg" xmlns:xlink="http://www.w3.org/1999/xlink" viewBox="0 0 512 512"><defs><style>.cls-1{stroke:#363e87;stroke-miterlimit:10;stroke-width:24px;fill:url(#linear-gradient);}.cls-2{opacity:0.33;}.cls-3{fill:#231f20;}</style><linearGradient id="linear-gradient" x1="39.36" y1="256" x2="472.64" y2="256" gradientUnits="userSpaceOnUse"><stop offset="0" stop-color="#737df6"/><stop offset="0.6" stop-color="#8e96ff"/><stop offset="1" stop-color="#535ee1"/></linearGradient></defs><path class="cls-1" d="M370.33,153.7H141.66a102.3,102.3,0,0,0,0,204.6H370.33a102.3,102.3,0,1,0,0-204.6Z"/><g class="cls-2"><polygon points="217.82 330.45 265.48 200.28 224.82 200.28 224.82 181.55 294.18 181.55 246.74 310.82 289.87 310.82 289.87 330.45 217.82 330.45"/><path class="cls-3" d="M293.32,182.15,245.88,311.42h43.39v18.43H218.68l47.66-130.17H225.43V182.15h67.89M295,181H224.22v19.93h40.4L217.55,329.44l-.59,1.61h73.51V310.22H247.6l46.85-127.66L295,181Z"/></g></svg>