<svg xmlns="http://www.w3.org/2000/svg" viewBox="0 0 4096 2160"><defs><style>.cls-1,.cls-2,.cls-4,.cls-5{stroke:#fff;stroke-miterlimit:10;}.cls-1,.cls-2{stroke-width:7px;}.cls-2{fill:none;}.cls-3,.cls-4,.cls-5{fill:#fff;}.cls-4{font-size:46.18px;font-family:FuturaCondensedPlain, Futura Condensed;letter-spacing:0.06em;}</style></defs><g id="Layer_3" data-name="Layer 3"><path class="cls-1" d="M1882.92,1036.79c-61.17-54.71-59.06-118.15-51.57-193.44,0-167.15-135.51-302.65-302.65-302.65-317.43-1.55-420,438.31-132.39,575.66,71.14,25.93,129.35,52,151.84,130.79a214.68,214.68,0,0,0,213,183.52C1971.13,1432.63,2057.1,1151.51,1882.92,1036.79Z"/><path class="cls-1" d="M2213.08,1043.14c61.17-54.71,59.06-118.15,51.57-193.44,0-167.15,135.51-302.65,302.65-302.65,317.43-1.54,420,438.31,132.39,575.67-71.14,25.92-129.35,52-151.84,130.79a214.68,214.68,0,0,1-213,183.52C2124.87,1439,2038.9,1157.87,2213.08,1043.14Z"/><path class="cls-1" d="M1449.91,550.08a313.55,313.55,0,0,1,78.79-9.38c167.14,0,302.65,135.5,302.65,302.65-4.79,48.15-7.38,91.46,7.38,130.74,62.14-18.93,133.45-29.7,209.27-29.7,76.65,0,148.68,11,211.3,30.32,12.48-37.75,9.91-79.18,5.35-125,0-167.15,135.51-302.65,302.65-302.65,37.92-.18,72.76,5.94,104.25,17.09-150-86.81-373.67-141.9-623.55-141.9C1811.89,422.24,1599.16,471.42,1449.91,550.08Z"/><path class="cls-1" d="M2259.29,974.09c-122.77-39.29-297.78-39.29-420.56,0,.07.18.15.37.22.56l-.22.06a147.8,147.8,0,0,0,7.12,17.66c.4,0,2.11,1.63,2.58,2.45,40.9-9.13,130.9,1.35,174.33,9.85,17.36,3.4,35.65,4.11,52.86,0,41.38-9.85,131.55-19,174-9.86.93.2,2.18-2.46,2.59-2.45a147.73,147.73,0,0,0,7.11-17.66l-.21-.06Z"/><path class="cls-1" d="M1488,543l1.67-.2Z"/><path class="cls-1" d="M1494.73,542.28l1.93-.18Z"/><path class="cls-1" d="M1502.32,541.62h0l-.83.07Z"/><path class="cls-1" d="M1449.91,550.08h0a905.35,905.35,0,0,1,113.71-49.77c-94-24.2-148.79,33.59-174,72.49A284,284,0,0,1,1449.91,550.08Z"/><path class="cls-1" d="M1474.9,544.88l1.14-.18Z"/><path class="cls-1" d="M1462.16,547.25l.63-.13Z"/><path class="cls-1" d="M1456,548.61l.33-.07Z"/><path class="cls-1" d="M1481.42,543.88l1.39-.19Z"/><path class="cls-1" d="M1468.48,546l.89-.17Z"/><path class="cls-1" d="M2551.8,547.44q-7.68.39-15.25,1.16Q2544.13,547.84,2551.8,547.44Z"/><path class="cls-1" d="M2559.52,547.15q-3.46.09-6.91.26Q2556.06,547.24,2559.52,547.15Z"/><path class="cls-1" d="M2760.47,586.13C2740,562,2701.8,541.86,2701.8,541.86c-99.28-59.7-172.1-58-203.07-53.09,64.6,21,122.79,46.42,172.78,75.35a281.14,281.14,0,0,1,84,47.19l4.95-1.45C2771.78,603.64,2760.47,586.13,2760.47,586.13Z"/><path class="cls-1" d="M1524.29,1196.21c-29.23-41.17-75-60.55-128-79.85-112.35-53.65-165.16-153.46-168.89-255.1-31.35,148.83-59.48,383.27-38.42,709.74,0,0,18,161.33,100.67,183.33,36.74,9.78,65.58-3.09,86.28-20.41a128.09,128.09,0,0,0,43.57-76.24C1436.23,1562.64,1495.06,1237.36,1524.29,1196.21Z"/><path class="cls-1" d="M2873.94,861.26a221,221,0,0,0-5.65-22.88c6.13,111.31-45.48,225.54-168.6,284.34-49.51,18-92.75,36.15-122.05,72.06a3.35,3.35,0,0,1-.56,1.43c29.23,41.15,88.06,366.43,104.77,461.47a128.09,128.09,0,0,0,43.57,76.24c20.7,17.32,49.54,30.19,86.28,20.41,82.67-22,100.67-183.33,100.67-183.33C2933.43,1244.53,2905.3,1010.09,2873.94,861.26Z"/><polygon class="cls-2" points="2434.51 1110.5 2330.46 1070.26 2228.43 1115.38 2188.19 1219.43 2233.31 1321.46 2337.36 1361.71 2439.39 1316.59 2479.63 1212.53 2434.51 1110.5"/><polygon class="cls-2" points="1629.8 740.61 1533.18 684.83 1425.42 713.71 1369.64 810.32 1398.52 918.08 1495.13 973.86 1602.89 944.99 1658.67 848.37 1629.8 740.61"/><circle class="cls-2" cx="2333.91" cy="1215.98" r="77.13"/><path class="cls-3" d="M2332.27,1245.07c-5.86,0-10.34-2.94-13.31-8.74s-4.39-13.21-4.39-22.42a83.68,83.68,0,0,1,1.33-15.9,22,22,0,0,1,5.29-11c2.66-2.81,6.38-4.23,11.08-4.23s7.89.59,9.95,1.81l.29.17v8.75l-.9-.52A17.18,17.18,0,0,0,2333,1191c-3.8,0-6.24,1.86-7.43,5.67-1.25,4-1.89,9.75-1.89,17.11,0,15,2.89,22.68,8.59,22.68a16.32,16.32,0,0,0,9.22-2.35l.93-.63v9.21l-.3.17A20.06,20.06,0,0,1,2332.27,1245.07Z"/><path class="cls-3" d="M2332.27,1183.35q6.74,0,9.64,1.72v7.37a17.65,17.65,0,0,0-8.91-2q-6.09,0-8,6.1t-1.92,17.28q0,23.28,9.19,23.28,5.91,0,9.55-2.45v7.73a19.3,19.3,0,0,1-9.55,2.09q-8.46,0-12.78-8.41t-4.32-22.15a82.42,82.42,0,0,1,1.32-15.78,21.22,21.22,0,0,1,5.14-10.74q3.82-4,10.64-4m0-1.2c-4.87,0-8.74,1.48-11.51,4.42a22.49,22.49,0,0,0-5.45,11.33,84,84,0,0,0-1.34,16c0,9.31,1.5,16.94,4.45,22.7,3.09,6,7.75,9.06,13.85,9.06a20.65,20.65,0,0,0,10.14-2.24l.61-.35v-10.69l-1.87,1.26a15.64,15.64,0,0,1-8.88,2.26c-5.3,0-8-7.44-8-22.09,0-7.3.63-13,1.86-16.93,1.12-3.58,3.3-5.25,6.86-5.25a16.55,16.55,0,0,1,8.31,1.84l1.8,1v-10.13l-.58-.35c-2.16-1.27-5.51-1.89-10.26-1.89Z"/><text class="cls-4" transform="translate(1943 780.28)">START/PAUSE</text><g id="layer1"><g id="g107205"><path id="path17743" class="cls-3" d="M1919.07,554.24l-24.68,43h30.87V587.19h-13.79l12.71-20.84,17.29,30.93h12.78l-24.89-43h-10.29"/><path id="path17745" class="cls-3" d="M1982.16,597.28l13.18-22.86v22.86H2006v-43H1995.4l-17.48,30.26-17.49-30.26h-10.56v43h10.56V574.42l13.25,22.86h8.48"/><path id="path17747" class="cls-3" d="M1895.8,571.05H1869v9.42h15.46v6.72h-27.64V563.66h38.47v-9.42h-38.87c-8.41,0-11.1,2.69-11.1,10.76v21.52c0,8.07,2.69,10.76,11.1,10.76h28.18c8.47,0,11.16-2.69,11.16-10.76V571.05"/><path id="path17749" class="cls-3" d="M2099.85,554.24h-25.22c-8.41,0-11.1,2.69-11.1,10.76v21.52c0,8.07,2.69,10.76,11.1,10.76h25.22c8.41,0,11.16-2.69,11.16-10.76v-8.07h-11.56v8.74H2075V563.66h24.42v7.39H2111v-6c0-8.07-2.75-10.76-11.16-10.76"/><path id="path17751" class="cls-3" d="M2152.11,587.19h-25v-33h-11.5v32.28c0,8.07,2.69,10.76,11.09,10.76h25.83c8.47,0,11.16-2.69,11.16-10.76V554.24h-11.56v33"/><path id="path17753" class="cls-3" d="M2210.55,575.09a7.54,7.54,0,0,0,4.3-6.73V563c0-6.05-3.29-8.74-10.22-8.74h-35.91v43h33.42c8.68,0,13.12-3.36,13.12-9.41v-5.38A7.73,7.73,0,0,0,2210.55,575.09ZM2180.22,563h20.58c3.22,0,3.36.68,3.36,2v3.36c0,1.35-.14,2-3.36,2h-20.58Zm24.21,22.2c0,2-.41,2.69-3.57,2.69h-20.64v-8.75h20.64c3.16,0,3.57.68,3.57,2.69v3.37"/><path id="path17755" class="cls-3" d="M2231.06,579.12h18.83v-8.74h-18.83V563h32.35v-8.74h-43.85v43h44.19V587.19h-32.69v-8.07"/><path id="path17757" class="cls-3" d="M2022.58,579.12h18.83v-8.74h-18.83V563h32.28v-8.74h-43.79v43h44.19V587.19h-32.68v-8.07"/><path id="path17759" class="cls-3" d="M2144.51,542.13V509.18h-6.26V530.7l-10.69-21.52h-8.41v32.95h6.26V516.58l12.84,25.55h6.26"/><path id="path17763" class="cls-3" d="M1963,516.58l12.91,25.55h6.19V509.18h-6.26V530.7l-10.62-21.52h-8.48v32.95H1963V516.58"/><path id="path17767" class="cls-3" d="M1860.36,516.58l12.91,25.55h6.19V509.18h-6.25V530.7l-10.63-21.52h-8.47v32.95h6.25V516.58"/><path id="path17771" class="cls-3" d="M1914.57,509.18h7.06v32.95h-7.06Z"/><path id="path17775" class="cls-3" d="M2020.83,542.13h6.72V514.56h10.56v-5.38H2010.2v5.38h10.63v27.57"/><path id="path17779" class="cls-3" d="M2190.44,542.13c5.78,0,10.42-3.36,10.42-8.07V517.92c0-4.7-4.64-8.74-10.42-8.74h-15.2v32.95Zm-9-27.57h8.81c2.22,0,4.44,1.35,4.44,3.36v15.47c0,2.69-2.29,4-4.44,4h-8.81V514.56"/><path id="path17783" class="cls-3" d="M2255.81,517.92c0-4.7-4.71-8.74-10.42-8.74h-5.59c-5.71,0-10.42,4-10.42,8.74v16.14c0,4.71,4.71,8.75,10.42,8.75h5.59c5.71,0,10.42-4,10.42-8.75Zm-6.19,16.14c0,2-2.28,3.37-4.44,3.37H2240c-2.22,0-4.44-1.35-4.44-3.37V517.92c0-2,2.22-3.36,4.44-3.36h5.17c2.16,0,4.44,1.35,4.44,3.36v16.14"/><path id="path17787" class="cls-3" d="M2064,534.06c0,4.71,4.37,8.07,10,8.07h14.46v-4.7h-13.86c-2.15,0-4.37-2-4.37-4V528h18.23v-5.38h-18.23v-4.71c0-2,2.22-3.36,4.37-3.36h13.86v-5.38h-14.26c-5.65.67-10.16,4-10.16,8.74v16.14"/></g></g><path class="cls-3" d="M2368.61,961.5v-61h13.7c10,0,15.06,4.24,15.06,12.61v5.36c0,5.47-2.33,9.35-6.94,11.59,5.33,2.08,8,6.11,8,12v4.19a16.27,16.27,0,0,1-3.69,10.85c-2.47,2.91-6.54,4.39-12.1,4.39Zm13.7-8.75a7.19,7.19,0,0,0,5.05-1.61c1.14-1.06,1.72-3.07,1.72-6v-3.1c0-5.41-2.33-8-7.13-8h-4v18.72Zm-.64-26.56c4.56,0,6.77-2.51,6.77-7.68V915c0-4.13-2.24-6.14-6.86-6.14h-3.67v17.36Z"/><path class="cls-3" d="M2382.31,901.14q14.46,0,14.46,12v5.36q0,8.65-8,11.65,9.09,2.73,9.09,11.91v4.19a15.64,15.64,0,0,1-3.54,10.46q-3.56,4.18-11.65,4.18h-13.46V901.14h13.1m-5,25.65h4.36q7.38,0,7.37-8.28V915q0-6.74-7.46-6.74h-4.27v18.56m0,26.56h5a7.75,7.75,0,0,0,5.46-1.77q1.91-1.77,1.91-6.41v-3.1q0-8.64-7.73-8.64h-4.64v19.92m5-53.41H2368V962.1h14.66c5.75,0,10-1.55,12.56-4.61a16.82,16.82,0,0,0,3.83-11.23v-4.19c0-5.7-2.43-9.74-7.24-12,4.09-2.4,6.15-6.27,6.15-11.53v-5.36c0-6-2.71-13.21-15.66-13.21Zm-3.8,9.49h3.07c4.33,0,6.26,1.71,6.26,5.54v3.54c0,4.83-2,7.08-6.17,7.08h-3.16V909.43Zm0,25.2H2382c4.45,0,6.53,2.37,6.53,7.44v3.1c0,2.73-.52,4.59-1.53,5.53a6.65,6.65,0,0,1-4.64,1.45h-3.8V934.63Z"/><circle class="cls-2" cx="2381.65" cy="931.02" r="61.02"/><path class="cls-3" d="M2591.3,857.07l-2.91-11.74h-12.7L2573,857.07h-9.42l14.29-61h8.5l14.29,61Zm-4.55-19.67L2582.12,815l-4.71,22.39Z"/><path class="cls-3" d="M2585.85,796.7l14,59.77h-8.09l-2.91-11.74h-13.65l-2.73,11.74h-8.18l14-59.77h7.55m-9.18,41.3h10.82l-5.37-25.92L2576.67,838m10.13-42.5h-9.45l-.21.93-14,59.76-.35,1.48h10.66l.21-.93,2.51-10.81h11.76l2.68,10.82.23.92h10.55l-.35-1.48-14-59.76-.22-.93Zm-8.65,41.3,4-18.85L2586,836.8Z"/><circle class="cls-2" cx="2582.08" cy="833.09" r="100.93"/><polygon class="cls-3" points="2520.8 673.43 2520.8 647.54 2509.38 612.46 2518.94 612.46 2525.5 635.39 2532.32 612.46 2541.97 612.46 2530.27 647.54 2530.27 673.43 2520.8 673.43"/><path class="cls-3" d="M2541.13,613.06l-11.46,34.39v25.38h-8.27V647.45l-11.19-34.39h8.27l7,24.47,7.27-24.47h8.37m1.67-1.2h-10.93l-.26.86-6.1,20.53-5.87-20.52-.25-.87h-10.84l.51,1.57,11.14,34.21V674h10.67V647.64l11.4-34.2.53-1.58Z"/><path class="cls-2" d="M2621.07,637.33c-.44-84.83-188.1-40.61-186.93,24.67-.52,31.4,34.76,53.37,63,38.54a153.78,153.78,0,0,1,81.67-18.71A44.55,44.55,0,0,0,2621.07,637.33Z"/><polygon class="cls-3" points="2778.87 818.72 2772.67 799.34 2766.46 818.72 2756.62 818.72 2767.85 787.73 2757.26 757.75 2766.64 757.75 2772.67 776.09 2778.78 757.75 2788.17 757.75 2777.4 787.73 2788.62 818.72 2778.87 818.72"/><path class="cls-3" d="M2787.31,758.35l-10.55,29.38,11,30.39h-8.46l-6.64-20.74L2766,818.12h-8.55l11-30.39-10.37-29.38h8.1l6.46,19.65,6.55-19.65h8.09m1.71-1.2h-10.67l-.27.82-5.41,16.21-5.32-16.2-.27-.83h-10.66l.56,1.6,10.23,29-10.86,30-.59,1.61h11.14l.27-.84,5.5-17.17,5.49,17.17.27.84h11.05l-.59-1.61-10.85-30,10.4-29,.58-1.61Z"/><path class="cls-2" d="M2785.86,882.21c84.76-3.45,33.9-189.42-31.29-185.94-31.4.6-52.11,36.64-36.29,64.29a153.63,153.63,0,0,1,21.61,81A44.54,44.54,0,0,0,2785.86,882.21Z"/><circle class="cls-2" cx="2048" cy="850.59" r="41.97"/><circle class="cls-2" cx="1514.16" cy="829.35" r="73.26"/><circle class="cls-2" cx="1514.16" cy="829.35" r="51.8"/><circle class="cls-2" cx="1514.16" cy="829.35" r="24.93"/><path class="cls-2" d="M1725.77,1106.72v70.53a.76.76,0,0,1-.76.76h-70.53a8.35,8.35,0,0,0-8.35,8.35v55.1a8.35,8.35,0,0,0,8.35,8.35H1725a.76.76,0,0,1,.76.76v70.52a8.35,8.35,0,0,0,8.35,8.35h55.1a8.35,8.35,0,0,0,8.35-8.35v-70.52a.75.75,0,0,1,.75-.76h70.53a8.35,8.35,0,0,0,8.35-8.35v-55.1a8.35,8.35,0,0,0-8.35-8.35h-70.53a.75.75,0,0,1-.75-.76v-70.53a8.35,8.35,0,0,0-8.35-8.35h-55.1A8.35,8.35,0,0,0,1725.77,1106.72Z"/><path class="cls-5" d="M1760.14,1119.18,1745.5,1152c-.74,1.64.12,3.75,1.53,3.75h29.28c1.4,0,2.26-2.11,1.53-3.75l-14.64-32.83A1.58,1.58,0,0,0,1760.14,1119.18Z"/><path class="cls-5" d="M1763.2,1305.05l14.64-32.84c.73-1.64-.13-3.75-1.53-3.75H1747c-1.41,0-2.27,2.11-1.53,3.75l14.64,32.84A1.59,1.59,0,0,0,1763.2,1305.05Z"/><circle class="cls-3" cx="1761.67" cy="1213.91" r="18.43"/><path class="cls-5" d="M1668.73,1215.44l32.83,14.64c1.65.73,3.76-.13,3.76-1.53v-29.28c0-1.4-2.11-2.26-3.76-1.53l-32.83,14.64A1.58,1.58,0,0,0,1668.73,1215.44Z"/><path class="cls-5" d="M1854.6,1212.38l-32.83-14.64c-1.64-.73-3.75.13-3.75,1.53v29.28c0,1.4,2.11,2.26,3.75,1.53l32.83-14.64A1.58,1.58,0,0,0,1854.6,1212.38Z"/></g></svg>